{
    "asset" : {
        "extensions" : {
            "ASOBO_normal_map_convention" : {
                "tangent_space_convention" : "DirectX"
            }
        },
        "generator" : "Khronos glTF Blender I/O v1.8.19 and Asobo Studio MSFS Blender I/O v1.1.6",
        "version" : "2.0"
    },
    "extensionsUsed" : [
        "ASOBO_normal_map_convention"
    ],
    "scene" : 0,
    "scenes" : [
        {
            "name" : "Scene",
            "nodes" : [
                0,
                1,
                2,
                3,
                4
            ]
        }
    ],
    "nodes" : [
        {
            "mesh" : 0,
            "name" : "body.003"
        },
        {
            "mesh" : 1,
            "name" : "roof.003"
        },
        {
            "mesh" : 2,
            "name" : "logo werk.003"
        },
        {
            "mesh" : 3,
            "name" : "logo for.003"
        },
        {
            "mesh" : 4,
            "name" : "aluminium skin.002"
        }
    ],
    "materials" : [
        {
            "name" : "EDAP plaster painted white",
            "normalTexture" : {
                "index" : 0
            },
            "occlusionTexture" : {
                "index" : 1
            },
            "pbrMetallicRoughness" : {
                "baseColorFactor" : [
                    0.800000011920929,
                    0.800000011920929,
                    0.800000011920929,
                    1
                ],
                "baseColorTexture" : {
                    "index" : 2
                },
                "metallicFactor" : 0,
                "metallicRoughnessTexture" : {
                    "index" : 1
                }
            }
        },
        {
            "name" : "EDAP hangar for front",
            "pbrMetallicRoughness" : {
                "baseColorTexture" : {
                    "index" : 3
                },
                "metallicFactor" : 0
            }
        },
        {
            "name" : "EDAP POC MiG-29",
            "pbrMetallicRoughness" : {
                "baseColorFactor" : [
                    0.5039643049240112,
                    0.5039643049240112,
                    0.5039643049240112,
                    1
                ],
                "baseColorTexture" : {
                    "index" : 4
                }
            }
        },
        {
            "name" : "EDAP hangar for aluminium skin",
            "normalTexture" : {
                "index" : 5
            },
            "occlusionTexture" : {
                "index" : 6
            },
            "pbrMetallicRoughness" : {
                "baseColorFactor" : [
                    0.9999988079071045,
                    0.9999989867210388,
                    1,
                    1
                ],
                "baseColorTexture" : {
                    "index" : 7
                },
                "metallicFactor" : 0,
                "metallicRoughnessTexture" : {
                    "index" : 6
                }
            }
        },
        {
            "name" : "FORwerk orange",
            "pbrMetallicRoughness" : {
                "baseColorFactor" : [
                    0.6831086277961731,
                    0.0707872062921524,
                    0.009763295762240887,
                    1
                ],
                "metallicFactor" : 0,
                "roughnessFactor" : 0.8500000238418579
            }
        },
        {
            "name" : "EDAP metal dark.003",
            "pbrMetallicRoughness" : {
                "baseColorFactor" : [
                    0.0692683756351471,
                    0.08474776148796082,
                    0.09592248499393463,
                    1
                ],
                "metallicFactor" : 0,
                "roughnessFactor" : 0.40000003576278687
            }
        },
        {
            "name" : "EDAP hangar for aluminium skin.003",
            "normalTexture" : {
                "index" : 8
            },
            "pbrMetallicRoughness" : {
                "baseColorFactor" : [
                    0.9999988079071045,
                    0.9999989867210388,
                    1,
                    1
                ],
                "baseColorTexture" : {
                    "index" : 9
                },
                "metallicFactor" : 0,
                "metallicRoughnessTexture" : {
                    "index" : 10
                }
            }
        }
    ],
    "meshes" : [
        {
            "name" : "Cube.039",
            "primitives" : [
                {
                    "attributes" : {
                        "POSITION" : 0,
                        "NORMAL" : 1,
                        "TEXCOORD_0" : 2
                    },
                    "indices" : 3,
                    "material" : 0
                },
                {
                    "attributes" : {
                        "POSITION" : 4,
                        "NORMAL" : 5,
                        "TEXCOORD_0" : 6
                    },
                    "indices" : 7,
                    "material" : 1
                },
                {
                    "attributes" : {
                        "POSITION" : 8,
                        "NORMAL" : 9,
                        "TEXCOORD_0" : 10
                    },
                    "indices" : 11,
                    "material" : 2
                }
            ]
        },
        {
            "name" : "Cube.041",
            "primitives" : [
                {
                    "attributes" : {
                        "POSITION" : 12,
                        "NORMAL" : 13,
                        "TEXCOORD_0" : 14
                    },
                    "indices" : 15,
                    "material" : 3
                }
            ]
        },
        {
            "name" : "path16.003",
            "primitives" : [
                {
                    "attributes" : {
                        "POSITION" : 16,
                        "NORMAL" : 17,
                        "TEXCOORD_0" : 18
                    },
                    "indices" : 19,
                    "material" : 4
                }
            ]
        },
        {
            "name" : "path14.003",
            "primitives" : [
                {
                    "attributes" : {
                        "POSITION" : 20,
                        "NORMAL" : 21,
                        "TEXCOORD_0" : 22
                    },
                    "indices" : 23,
                    "material" : 5
                }
            ]
        },
        {
            "name" : "Cube.044",
            "primitives" : [
                {
                    "attributes" : {
                        "POSITION" : 24,
                        "NORMAL" : 25,
                        "TEXCOORD_0" : 26
                    },
                    "indices" : 27,
                    "material" : 6
                }
            ]
        }
    ],
    "textures" : [
        {
            "sampler" : 0,
            "source" : 0
        },
        {
            "sampler" : 0,
            "source" : 1
        },
        {
            "sampler" : 0,
            "source" : 2
        },
        {
            "sampler" : 0,
            "source" : 3
        },
        {
            "sampler" : 0,
            "source" : 4
        },
        {
            "sampler" : 0,
            "source" : 5
        },
        {
            "sampler" : 0,
            "source" : 6
        },
        {
            "sampler" : 0,
            "source" : 7
        },
        {
            "sampler" : 0,
            "source" : 8
        },
        {
            "sampler" : 0,
            "source" : 9
        },
        {
            "sampler" : 0,
            "source" : 10
        }
    ],
    "images" : [
        {
            "mimeType" : "image/png",
            "name" : "Plaster_Painted_1K_normal_flipped.png",
            "uri" : "Plaster_Painted_1K_normal_flipped_png.png"
        },
        {
            "mimeType" : "image/png",
            "name" : "Plaster_Painted_1K_composite.png",
            "uri" : "Plaster_Painted_1K_composite_png.png"
        },
        {
            "mimeType" : "image/png",
            "name" : "Plaster_Painted_1K_albedo",
            "uri" : "Plaster_Painted_1K_albedo.png"
        },
        {
            "mimeType" : "image/png",
            "name" : "hangar_for_front-albedo",
            "uri" : "hangar_for_front-albedo.png"
        },
        {
            "mimeType" : "image/png",
            "name" : "hangar_for_MiG",
            "uri" : "hangar_for_MiG.png"
        },
        {
            "mimeType" : "image/png",
            "name" : "hangar_for_skin-normal_flipped",
            "uri" : "hangar_for_skin-normal_flipped.png"
        },
        {
            "mimeType" : "image/png",
            "name" : "hangar_for_skin-composite",
            "uri" : "hangar_for_skin-composite.png"
        },
        {
            "mimeType" : "image/png",
            "name" : "hangar_for_skin_diffuse",
            "uri" : "hangar_for_skin_diffuse.png"
        },
        {
            "mimeType" : "image/png",
            "name" : "hangar_for_skin-normal_flipped.png",
            "uri" : "hangar_for_skin-normal_flipped_png.png"
        },
        {
            "mimeType" : "image/png",
            "name" : "hangar_for_skin_diffuse.png",
            "uri" : "hangar_for_skin_diffuse_png.png"
        },
        {
            "mimeType" : "image/png",
            "name" : "hangar_for_skin-composite.png",
            "uri" : "hangar_for_skin-composite_png.png"
        }
    ],
    "accessors" : [
        {
            "bufferView" : 0,
            "componentType" : 5126,
            "count" : 20,
            "max" : [
                6.500002861022949,
                2.5626614093780518,
                8.500001907348633
            ],
            "min" : [
                -6.500002861022949,
                -0.23500004410743713,
                -8.500001907348633
            ],
            "type" : "VEC3"
        },
        {
            "bufferView" : 1,
            "componentType" : 5126,
            "count" : 20,
            "type" : "VEC3"
        },
        {
            "bufferView" : 2,
            "componentType" : 5126,
            "count" : 20,
            "type" : "VEC2"
        },
        {
            "bufferView" : 3,
            "componentType" : 5123,
            "count" : 30,
            "type" : "SCALAR"
        },
        {
            "bufferView" : 4,
            "componentType" : 5126,
            "count" : 8,
            "max" : [
                6.500002861022949,
                2.5626614093780518,
                8.500001907348633
            ],
            "min" : [
                -6.499997138977051,
                -0.23500004410743713,
                8.499998092651367
            ],
            "type" : "VEC3"
        },
        {
            "bufferView" : 5,
            "componentType" : 5126,
            "count" : 8,
            "type" : "VEC3"
        },
        {
            "bufferView" : 6,
            "componentType" : 5126,
            "count" : 8,
            "type" : "VEC2"
        },
        {
            "bufferView" : 7,
            "componentType" : 5123,
            "count" : 12,
            "type" : "SCALAR"
        },
        {
            "bufferView" : 8,
            "componentType" : 5126,
            "count" : 4,
            "max" : [
                2.787135362625122,
                2.5626614093780518,
                8.5
            ],
            "min" : [
                0.04245834797620773,
                -0.23500004410743713,
                8.499999046325684
            ],
            "type" : "VEC3"
        },
        {
            "bufferView" : 9,
            "componentType" : 5126,
            "count" : 4,
            "type" : "VEC3"
        },
        {
            "bufferView" : 10,
            "componentType" : 5126,
            "count" : 4,
            "type" : "VEC2"
        },
        {
            "bufferView" : 11,
            "componentType" : 5123,
            "count" : 6,
            "type" : "SCALAR"
        },
        {
            "bufferView" : 12,
            "componentType" : 5126,
            "count" : 38,
            "max" : [
                6.646071910858154,
                4.530145645141602,
                8.643481254577637
            ],
            "min" : [
                -6.646071910858154,
                3.15263032913208,
                -8.643481254577637
            ],
            "type" : "VEC3"
        },
        {
            "bufferView" : 13,
            "componentType" : 5126,
            "count" : 38,
            "type" : "VEC3"
        },
        {
            "bufferView" : 14,
            "componentType" : 5126,
            "count" : 38,
            "type" : "VEC2"
        },
        {
            "bufferView" : 15,
            "componentType" : 5123,
            "count" : 60,
            "type" : "SCALAR"
        },
        {
            "bufferView" : 16,
            "componentType" : 5126,
            "count" : 755,
            "max" : [
                0.2491438388824463,
                3.444404125213623,
                8.68653678894043
            ],
            "min" : [
                -1.1407121419906616,
                3.030480146408081,
                8.627670288085938
            ],
            "type" : "VEC3"
        },
        {
            "bufferView" : 17,
            "componentType" : 5126,
            "count" : 755,
            "type" : "VEC3"
        },
        {
            "bufferView" : 18,
            "componentType" : 5126,
            "count" : 755,
            "type" : "VEC2"
        },
        {
            "bufferView" : 19,
            "componentType" : 5123,
            "count" : 978,
            "type" : "SCALAR"
        },
        {
            "bufferView" : 20,
            "componentType" : 5126,
            "count" : 3540,
            "max" : [
                1.480570912361145,
                3.9192469120025635,
                8.68653678894043
            ],
            "min" : [
                -1.5199692249298096,
                3.0277206897735596,
                8.627670288085938
            ],
            "type" : "VEC3"
        },
        {
            "bufferView" : 21,
            "componentType" : 5126,
            "count" : 3540,
            "type" : "VEC3"
        },
        {
            "bufferView" : 22,
            "componentType" : 5126,
            "count" : 3540,
            "type" : "VEC2"
        },
        {
            "bufferView" : 23,
            "componentType" : 5123,
            "count" : 4782,
            "type" : "SCALAR"
        },
        {
            "bufferView" : 24,
            "componentType" : 5126,
            "count" : 82,
            "max" : [
                6.584244728088379,
                4.522867679595947,
                8.610164642333984
            ],
            "min" : [
                -6.584244728088379,
                0.20480400323867798,
                -8.610164642333984
            ],
            "type" : "VEC3"
        },
        {
            "bufferView" : 25,
            "componentType" : 5126,
            "count" : 82,
            "type" : "VEC3"
        },
        {
            "bufferView" : 26,
            "componentType" : 5126,
            "count" : 82,
            "type" : "VEC2"
        },
        {
            "bufferView" : 27,
            "componentType" : 5123,
            "count" : 132,
            "type" : "SCALAR"
        }
    ],
    "bufferViews" : [
        {
            "buffer" : 0,
            "byteLength" : 240,
            "byteOffset" : 0
        },
        {
            "buffer" : 0,
            "byteLength" : 240,
            "byteOffset" : 240
        },
        {
            "buffer" : 0,
            "byteLength" : 160,
            "byteOffset" : 480
        },
        {
            "buffer" : 0,
            "byteLength" : 60,
            "byteOffset" : 640
        },
        {
            "buffer" : 0,
            "byteLength" : 96,
            "byteOffset" : 700
        },
        {
            "buffer" : 0,
            "byteLength" : 96,
            "byteOffset" : 796
        },
        {
            "buffer" : 0,
            "byteLength" : 64,
            "byteOffset" : 892
        },
        {
            "buffer" : 0,
            "byteLength" : 24,
            "byteOffset" : 956
        },
        {
            "buffer" : 0,
            "byteLength" : 48,
            "byteOffset" : 980
        },
        {
            "buffer" : 0,
            "byteLength" : 48,
            "byteOffset" : 1028
        },
        {
            "buffer" : 0,
            "byteLength" : 32,
            "byteOffset" : 1076
        },
        {
            "buffer" : 0,
            "byteLength" : 12,
            "byteOffset" : 1108
        },
        {
            "buffer" : 0,
            "byteLength" : 456,
            "byteOffset" : 1120
        },
        {
            "buffer" : 0,
            "byteLength" : 456,
            "byteOffset" : 1576
        },
        {
            "buffer" : 0,
            "byteLength" : 304,
            "byteOffset" : 2032
        },
        {
            "buffer" : 0,
            "byteLength" : 120,
            "byteOffset" : 2336
        },
        {
            "buffer" : 0,
            "byteLength" : 9060,
            "byteOffset" : 2456
        },
        {
            "buffer" : 0,
            "byteLength" : 9060,
            "byteOffset" : 11516
        },
        {
            "buffer" : 0,
            "byteLength" : 6040,
            "byteOffset" : 20576
        },
        {
            "buffer" : 0,
            "byteLength" : 1956,
            "byteOffset" : 26616
        },
        {
            "buffer" : 0,
            "byteLength" : 42480,
            "byteOffset" : 28572
        },
        {
            "buffer" : 0,
            "byteLength" : 42480,
            "byteOffset" : 71052
        },
        {
            "buffer" : 0,
            "byteLength" : 28320,
            "byteOffset" : 113532
        },
        {
            "buffer" : 0,
            "byteLength" : 9564,
            "byteOffset" : 141852
        },
        {
            "buffer" : 0,
            "byteLength" : 984,
            "byteOffset" : 151416
        },
        {
            "buffer" : 0,
            "byteLength" : 984,
            "byteOffset" : 152400
        },
        {
            "buffer" : 0,
            "byteLength" : 656,
            "byteOffset" : 153384
        },
        {
            "buffer" : 0,
            "byteLength" : 264,
            "byteOffset" : 154040
        }
    ],
    "samplers" : [
        {
            "magFilter" : 9729,
            "minFilter" : 9987
        }
    ],
    "buffers" : [
        {
            "byteLength" : 154304,
            "uri" : "edap-hangar-for_LOD02.bin"
        }
    ]
}
