{
    "asset" : {
        "extensions" : {
            "ASOBO_normal_map_convention" : {
                "tangent_space_convention" : "DirectX"
            }
        },
        "generator" : "Khronos glTF Blender I/O v1.8.19 and Asobo Studio MSFS Blender I/O v1.1.6",
        "version" : "2.0"
    },
    "extensionsUsed" : [
        "ASOBO_normal_map_convention"
    ],
    "scene" : 0,
    "scenes" : [
        {
            "name" : "Scene",
            "nodes" : [
                0,
                1,
                2
            ]
        }
    ],
    "nodes" : [
        {
            "mesh" : 0,
            "name" : "body.004"
        },
        {
            "mesh" : 1,
            "name" : "roof.004"
        },
        {
            "mesh" : 2,
            "name" : "aluminium skin.003"
        }
    ],
    "materials" : [
        {
            "name" : "EDAP COL hangar for aluminium skin",
            "pbrMetallicRoughness" : {
                "baseColorFactor" : [
                    0.24227988719940186,
                    0.24227988719940186,
                    0.24227988719940186,
                    1
                ],
                "metallicFactor" : 0
            }
        }
    ],
    "meshes" : [
        {
            "name" : "Cube.014",
            "primitives" : [
                {
                    "attributes" : {
                        "POSITION" : 0,
                        "NORMAL" : 1,
                        "TEXCOORD_0" : 2
                    },
                    "indices" : 3,
                    "material" : 0
                }
            ]
        },
        {
            "name" : "Cube.027",
            "primitives" : [
                {
                    "attributes" : {
                        "POSITION" : 4,
                        "NORMAL" : 5,
                        "TEXCOORD_0" : 6
                    },
                    "indices" : 7,
                    "material" : 0
                }
            ]
        },
        {
            "name" : "Cube.029",
            "primitives" : [
                {
                    "attributes" : {
                        "POSITION" : 8,
                        "NORMAL" : 9,
                        "TEXCOORD_0" : 10
                    },
                    "indices" : 11,
                    "material" : 0
                }
            ]
        }
    ],
    "accessors" : [
        {
            "bufferView" : 0,
            "componentType" : 5126,
            "count" : 32,
            "max" : [
                6.500002861022949,
                2.5626614093780518,
                8.500001907348633
            ],
            "min" : [
                -6.500002861022949,
                -0.23500004410743713,
                -8.500001907348633
            ],
            "type" : "VEC3"
        },
        {
            "bufferView" : 1,
            "componentType" : 5126,
            "count" : 32,
            "type" : "VEC3"
        },
        {
            "bufferView" : 2,
            "componentType" : 5126,
            "count" : 32,
            "type" : "VEC2"
        },
        {
            "bufferView" : 3,
            "componentType" : 5123,
            "count" : 48,
            "type" : "SCALAR"
        },
        {
            "bufferView" : 4,
            "componentType" : 5126,
            "count" : 38,
            "max" : [
                6.646071910858154,
                4.530145645141602,
                8.643481254577637
            ],
            "min" : [
                -6.646071910858154,
                3.15263032913208,
                -8.643481254577637
            ],
            "type" : "VEC3"
        },
        {
            "bufferView" : 5,
            "componentType" : 5126,
            "count" : 38,
            "type" : "VEC3"
        },
        {
            "bufferView" : 6,
            "componentType" : 5126,
            "count" : 38,
            "type" : "VEC2"
        },
        {
            "bufferView" : 7,
            "componentType" : 5123,
            "count" : 60,
            "type" : "SCALAR"
        },
        {
            "bufferView" : 8,
            "componentType" : 5126,
            "count" : 82,
            "max" : [
                6.584244728088379,
                4.522867679595947,
                8.610164642333984
            ],
            "min" : [
                -6.584244728088379,
                0.20480400323867798,
                -8.610164642333984
            ],
            "type" : "VEC3"
        },
        {
            "bufferView" : 9,
            "componentType" : 5126,
            "count" : 82,
            "type" : "VEC3"
        },
        {
            "bufferView" : 10,
            "componentType" : 5126,
            "count" : 82,
            "type" : "VEC2"
        },
        {
            "bufferView" : 11,
            "componentType" : 5123,
            "count" : 132,
            "type" : "SCALAR"
        }
    ],
    "bufferViews" : [
        {
            "buffer" : 0,
            "byteLength" : 384,
            "byteOffset" : 0
        },
        {
            "buffer" : 0,
            "byteLength" : 384,
            "byteOffset" : 384
        },
        {
            "buffer" : 0,
            "byteLength" : 256,
            "byteOffset" : 768
        },
        {
            "buffer" : 0,
            "byteLength" : 96,
            "byteOffset" : 1024
        },
        {
            "buffer" : 0,
            "byteLength" : 456,
            "byteOffset" : 1120
        },
        {
            "buffer" : 0,
            "byteLength" : 456,
            "byteOffset" : 1576
        },
        {
            "buffer" : 0,
            "byteLength" : 304,
            "byteOffset" : 2032
        },
        {
            "buffer" : 0,
            "byteLength" : 120,
            "byteOffset" : 2336
        },
        {
            "buffer" : 0,
            "byteLength" : 984,
            "byteOffset" : 2456
        },
        {
            "buffer" : 0,
            "byteLength" : 984,
            "byteOffset" : 3440
        },
        {
            "buffer" : 0,
            "byteLength" : 656,
            "byteOffset" : 4424
        },
        {
            "buffer" : 0,
            "byteLength" : 264,
            "byteOffset" : 5080
        }
    ],
    "buffers" : [
        {
            "byteLength" : 5344,
            "uri" : "edap-hangar-for_LOD03.bin"
        }
    ]
}
