{
    "asset" : {
        "extensions" : {
            "ASOBO_normal_map_convention" : {
                "tangent_space_convention" : "DirectX"
            }
        },
        "generator" : "Khronos glTF Blender I/O v1.8.19 and Asobo Studio MSFS Blender I/O v1.1.6",
        "version" : "2.0"
    },
    "extensionsUsed" : [
        "ASOBO_normal_map_convention"
    ],
    "scene" : 0,
    "scenes" : [
        {
            "name" : "Scene",
            "nodes" : [
                0,
                1,
                2
            ]
        }
    ],
    "nodes" : [
        {
            "mesh" : 0,
            "name" : "body",
            "scale" : [
                5.400000095367432,
                0.800000011920929,
                10.399999618530273
            ],
            "translation" : [
                0,
                1.7999999523162842,
                0
            ]
        },
        {
            "mesh" : 1,
            "name" : "body.001",
            "scale" : [
                5.400000095367432,
                0.800000011920929,
                10.399999618530273
            ],
            "translation" : [
                0,
                1.7999999523162842,
                0
            ]
        },
        {
            "mesh" : 2,
            "name" : "body.002",
            "scale" : [
                5.400000095367432,
                0.800000011920929,
                10.399999618530273
            ],
            "translation" : [
                0,
                1.7999999523162842,
                0
            ]
        }
    ],
    "materials" : [
        {
            "name" : "EDAP main building west",
            "pbrMetallicRoughness" : {
                "baseColorTexture" : {
                    "index" : 0
                },
                "metallicFactor" : 0
            }
        },
        {
            "name" : "EDAP plaster white",
            "normalTexture" : {
                "index" : 1
            },
            "occlusionTexture" : {
                "index" : 2
            },
            "pbrMetallicRoughness" : {
                "baseColorTexture" : {
                    "index" : 3
                },
                "metallicFactor" : 0,
                "metallicRoughnessTexture" : {
                    "index" : 2
                }
            }
        },
        {
            "name" : "EDAP roofing bitumen",
            "normalTexture" : {
                "index" : 4
            },
            "pbrMetallicRoughness" : {
                "baseColorFactor" : [
                    0.09289621561765671,
                    0.09289621561765671,
                    0.09289621561765671,
                    1
                ],
                "baseColorTexture" : {
                    "index" : 5
                },
                "metallicFactor" : 0,
                "metallicRoughnessTexture" : {
                    "index" : 6
                }
            }
        },
        {
            "name" : "EDAP main building south",
            "pbrMetallicRoughness" : {
                "baseColorTexture" : {
                    "index" : 7
                },
                "metallicFactor" : 0
            }
        },
        {
            "name" : "edap-tower-west",
            "pbrMetallicRoughness" : {
                "baseColorTexture" : {
                    "index" : 8
                },
                "metallicFactor" : 0
            }
        }
    ],
    "meshes" : [
        {
            "name" : "Cube",
            "primitives" : [
                {
                    "attributes" : {
                        "POSITION" : 0,
                        "NORMAL" : 1,
                        "TEXCOORD_0" : 2
                    },
                    "indices" : 3,
                    "material" : 0
                },
                {
                    "attributes" : {
                        "POSITION" : 4,
                        "NORMAL" : 5,
                        "TEXCOORD_0" : 6
                    },
                    "indices" : 7,
                    "material" : 1
                },
                {
                    "attributes" : {
                        "POSITION" : 8,
                        "NORMAL" : 9,
                        "TEXCOORD_0" : 10
                    },
                    "indices" : 11,
                    "material" : 2
                },
                {
                    "attributes" : {
                        "POSITION" : 12,
                        "NORMAL" : 13,
                        "TEXCOORD_0" : 14
                    },
                    "indices" : 15,
                    "material" : 3
                }
            ]
        },
        {
            "name" : "Cube.001",
            "primitives" : [
                {
                    "attributes" : {
                        "POSITION" : 16,
                        "NORMAL" : 17,
                        "TEXCOORD_0" : 18
                    },
                    "indices" : 19,
                    "material" : 1
                },
                {
                    "attributes" : {
                        "POSITION" : 20,
                        "NORMAL" : 21,
                        "TEXCOORD_0" : 22
                    },
                    "indices" : 23,
                    "material" : 2
                }
            ]
        },
        {
            "name" : "Cube.002",
            "primitives" : [
                {
                    "attributes" : {
                        "POSITION" : 24,
                        "NORMAL" : 25,
                        "TEXCOORD_0" : 26
                    },
                    "indices" : 27,
                    "material" : 4
                },
                {
                    "attributes" : {
                        "POSITION" : 28,
                        "NORMAL" : 29,
                        "TEXCOORD_0" : 30
                    },
                    "indices" : 31,
                    "material" : 1
                },
                {
                    "attributes" : {
                        "POSITION" : 32,
                        "NORMAL" : 33,
                        "TEXCOORD_0" : 34
                    },
                    "indices" : 35,
                    "material" : 2
                }
            ]
        }
    ],
    "textures" : [
        {
            "sampler" : 0,
            "source" : 0
        },
        {
            "sampler" : 0,
            "source" : 1
        },
        {
            "sampler" : 0,
            "source" : 2
        },
        {
            "sampler" : 0,
            "source" : 3
        },
        {
            "sampler" : 0,
            "source" : 4
        },
        {
            "sampler" : 0,
            "source" : 5
        },
        {
            "sampler" : 0,
            "source" : 6
        },
        {
            "sampler" : 0,
            "source" : 7
        },
        {
            "sampler" : 0,
            "source" : 8
        }
    ],
    "images" : [
        {
            "mimeType" : "image/png",
            "name" : "edap-main-building-west",
            "uri" : "edap-main-building-west.png"
        },
        {
            "mimeType" : "image/png",
            "name" : "plaster_Normal",
            "uri" : "plaster_Normal.png"
        },
        {
            "mimeType" : "image/png",
            "name" : "plaster_composite",
            "uri" : "plaster_composite.png"
        },
        {
            "mimeType" : "image/png",
            "name" : "plaster_Base_Color",
            "uri" : "plaster_Base_Color.png"
        },
        {
            "mimeType" : "image/png",
            "name" : "rooftiles_bitumen_normal_flipped",
            "uri" : "rooftiles_bitumen_normal_flipped.png"
        },
        {
            "mimeType" : "image/png",
            "name" : "rooftiles_bitumen_diffuseOriginal",
            "uri" : "rooftiles_bitumen_diffuseOriginal.png"
        },
        {
            "mimeType" : "image/png",
            "name" : "rooftiles_bitumen_composite",
            "uri" : "rooftiles_bitumen_composite.png"
        },
        {
            "mimeType" : "image/png",
            "name" : "edap-main-building-south",
            "uri" : "edap-main-building-south.png"
        },
        {
            "mimeType" : "image/png",
            "name" : "edap-tower-west",
            "uri" : "edap-tower-west.png"
        }
    ],
    "accessors" : [
        {
            "bufferView" : 0,
            "componentType" : 5126,
            "count" : 16,
            "max" : [
                2.5,
                2.5,
                2.5
            ],
            "min" : [
                -2.5,
                -2.5,
                2.5
            ],
            "type" : "VEC3"
        },
        {
            "bufferView" : 1,
            "componentType" : 5126,
            "count" : 16,
            "type" : "VEC3"
        },
        {
            "bufferView" : 2,
            "componentType" : 5126,
            "count" : 16,
            "type" : "VEC2"
        },
        {
            "bufferView" : 3,
            "componentType" : 5123,
            "count" : 42,
            "type" : "SCALAR"
        },
        {
            "bufferView" : 4,
            "componentType" : 5126,
            "count" : 98,
            "max" : [
                2.5,
                9.00400161743164,
                2.5
            ],
            "min" : [
                -2.5,
                -2.5,
                -2.5
            ],
            "type" : "VEC3"
        },
        {
            "bufferView" : 5,
            "componentType" : 5126,
            "count" : 98,
            "type" : "VEC3"
        },
        {
            "bufferView" : 6,
            "componentType" : 5126,
            "count" : 98,
            "type" : "VEC2"
        },
        {
            "bufferView" : 7,
            "componentType" : 5123,
            "count" : 246,
            "type" : "SCALAR"
        },
        {
            "bufferView" : 8,
            "componentType" : 5126,
            "count" : 22,
            "max" : [
                2.5,
                2.5,
                2.5
            ],
            "min" : [
                -2.5,
                2.5,
                1.543322205543518
            ],
            "type" : "VEC3"
        },
        {
            "bufferView" : 9,
            "componentType" : 5126,
            "count" : 22,
            "type" : "VEC3"
        },
        {
            "bufferView" : 10,
            "componentType" : 5126,
            "count" : 22,
            "type" : "VEC2"
        },
        {
            "bufferView" : 11,
            "componentType" : 5123,
            "count" : 54,
            "type" : "SCALAR"
        },
        {
            "bufferView" : 12,
            "componentType" : 5126,
            "count" : 10,
            "max" : [
                2.5,
                9.00400161743164,
                1.543322205543518
            ],
            "min" : [
                2.5,
                -2.5,
                -2.5
            ],
            "type" : "VEC3"
        },
        {
            "bufferView" : 13,
            "componentType" : 5126,
            "count" : 10,
            "type" : "VEC3"
        },
        {
            "bufferView" : 14,
            "componentType" : 5126,
            "count" : 10,
            "type" : "VEC2"
        },
        {
            "bufferView" : 15,
            "componentType" : 5123,
            "count" : 18,
            "type" : "SCALAR"
        },
        {
            "bufferView" : 16,
            "componentType" : 5126,
            "count" : 16,
            "max" : [
                -1.0063395500183105,
                18.4659423828125,
                2.0259361267089844
            ],
            "min" : [
                -1.9504916667938232,
                2.5,
                1.543322205543518
            ],
            "type" : "VEC3"
        },
        {
            "bufferView" : 17,
            "componentType" : 5126,
            "count" : 16,
            "type" : "VEC3"
        },
        {
            "bufferView" : 18,
            "componentType" : 5126,
            "count" : 16,
            "type" : "VEC2"
        },
        {
            "bufferView" : 19,
            "componentType" : 5123,
            "count" : 24,
            "type" : "SCALAR"
        },
        {
            "bufferView" : 20,
            "componentType" : 5126,
            "count" : 4,
            "max" : [
                -1.0063395500183105,
                18.4659423828125,
                2.0259361267089844
            ],
            "min" : [
                -1.9504916667938232,
                18.4659423828125,
                1.543322205543518
            ],
            "type" : "VEC3"
        },
        {
            "bufferView" : 21,
            "componentType" : 5126,
            "count" : 4,
            "type" : "VEC3"
        },
        {
            "bufferView" : 22,
            "componentType" : 5126,
            "count" : 4,
            "type" : "VEC2"
        },
        {
            "bufferView" : 23,
            "componentType" : 5123,
            "count" : 6,
            "type" : "SCALAR"
        },
        {
            "bufferView" : 24,
            "componentType" : 5126,
            "count" : 12,
            "max" : [
                2.629983425140381,
                7.2308454513549805,
                2.1251637935638428
            ],
            "min" : [
                1.5749821662902832,
                3.498779296875,
                1.5441192388534546
            ],
            "type" : "VEC3"
        },
        {
            "bufferView" : 25,
            "componentType" : 5126,
            "count" : 12,
            "type" : "VEC3"
        },
        {
            "bufferView" : 26,
            "componentType" : 5126,
            "count" : 12,
            "type" : "VEC2"
        },
        {
            "bufferView" : 27,
            "componentType" : 5123,
            "count" : 18,
            "type" : "SCALAR"
        },
        {
            "bufferView" : 28,
            "componentType" : 5126,
            "count" : 28,
            "max" : [
                2.629983425140381,
                7.2308454513549805,
                2.1251637935638428
            ],
            "min" : [
                1.5749821662902832,
                2.5,
                1.543322205543518
            ],
            "type" : "VEC3"
        },
        {
            "bufferView" : 29,
            "componentType" : 5126,
            "count" : 28,
            "type" : "VEC3"
        },
        {
            "bufferView" : 30,
            "componentType" : 5126,
            "count" : 28,
            "type" : "VEC2"
        },
        {
            "bufferView" : 31,
            "componentType" : 5123,
            "count" : 42,
            "type" : "SCALAR"
        },
        {
            "bufferView" : 32,
            "componentType" : 5126,
            "count" : 4,
            "max" : [
                2.629983425140381,
                7.2308454513549805,
                2.1251637935638428
            ],
            "min" : [
                1.5749821662902832,
                7.2308454513549805,
                1.5441192388534546
            ],
            "type" : "VEC3"
        },
        {
            "bufferView" : 33,
            "componentType" : 5126,
            "count" : 4,
            "type" : "VEC3"
        },
        {
            "bufferView" : 34,
            "componentType" : 5126,
            "count" : 4,
            "type" : "VEC2"
        },
        {
            "bufferView" : 35,
            "componentType" : 5123,
            "count" : 6,
            "type" : "SCALAR"
        }
    ],
    "bufferViews" : [
        {
            "buffer" : 0,
            "byteLength" : 192,
            "byteOffset" : 0
        },
        {
            "buffer" : 0,
            "byteLength" : 192,
            "byteOffset" : 192
        },
        {
            "buffer" : 0,
            "byteLength" : 128,
            "byteOffset" : 384
        },
        {
            "buffer" : 0,
            "byteLength" : 84,
            "byteOffset" : 512
        },
        {
            "buffer" : 0,
            "byteLength" : 1176,
            "byteOffset" : 596
        },
        {
            "buffer" : 0,
            "byteLength" : 1176,
            "byteOffset" : 1772
        },
        {
            "buffer" : 0,
            "byteLength" : 784,
            "byteOffset" : 2948
        },
        {
            "buffer" : 0,
            "byteLength" : 492,
            "byteOffset" : 3732
        },
        {
            "buffer" : 0,
            "byteLength" : 264,
            "byteOffset" : 4224
        },
        {
            "buffer" : 0,
            "byteLength" : 264,
            "byteOffset" : 4488
        },
        {
            "buffer" : 0,
            "byteLength" : 176,
            "byteOffset" : 4752
        },
        {
            "buffer" : 0,
            "byteLength" : 108,
            "byteOffset" : 4928
        },
        {
            "buffer" : 0,
            "byteLength" : 120,
            "byteOffset" : 5036
        },
        {
            "buffer" : 0,
            "byteLength" : 120,
            "byteOffset" : 5156
        },
        {
            "buffer" : 0,
            "byteLength" : 80,
            "byteOffset" : 5276
        },
        {
            "buffer" : 0,
            "byteLength" : 36,
            "byteOffset" : 5356
        },
        {
            "buffer" : 0,
            "byteLength" : 192,
            "byteOffset" : 5392
        },
        {
            "buffer" : 0,
            "byteLength" : 192,
            "byteOffset" : 5584
        },
        {
            "buffer" : 0,
            "byteLength" : 128,
            "byteOffset" : 5776
        },
        {
            "buffer" : 0,
            "byteLength" : 48,
            "byteOffset" : 5904
        },
        {
            "buffer" : 0,
            "byteLength" : 48,
            "byteOffset" : 5952
        },
        {
            "buffer" : 0,
            "byteLength" : 48,
            "byteOffset" : 6000
        },
        {
            "buffer" : 0,
            "byteLength" : 32,
            "byteOffset" : 6048
        },
        {
            "buffer" : 0,
            "byteLength" : 12,
            "byteOffset" : 6080
        },
        {
            "buffer" : 0,
            "byteLength" : 144,
            "byteOffset" : 6092
        },
        {
            "buffer" : 0,
            "byteLength" : 144,
            "byteOffset" : 6236
        },
        {
            "buffer" : 0,
            "byteLength" : 96,
            "byteOffset" : 6380
        },
        {
            "buffer" : 0,
            "byteLength" : 36,
            "byteOffset" : 6476
        },
        {
            "buffer" : 0,
            "byteLength" : 336,
            "byteOffset" : 6512
        },
        {
            "buffer" : 0,
            "byteLength" : 336,
            "byteOffset" : 6848
        },
        {
            "buffer" : 0,
            "byteLength" : 224,
            "byteOffset" : 7184
        },
        {
            "buffer" : 0,
            "byteLength" : 84,
            "byteOffset" : 7408
        },
        {
            "buffer" : 0,
            "byteLength" : 48,
            "byteOffset" : 7492
        },
        {
            "buffer" : 0,
            "byteLength" : 48,
            "byteOffset" : 7540
        },
        {
            "buffer" : 0,
            "byteLength" : 32,
            "byteOffset" : 7588
        },
        {
            "buffer" : 0,
            "byteLength" : 12,
            "byteOffset" : 7620
        }
    ],
    "samplers" : [
        {
            "magFilter" : 9729,
            "minFilter" : 9987
        }
    ],
    "buffers" : [
        {
            "byteLength" : 7632,
            "uri" : "edap-main-building_LOD00.bin"
        }
    ]
}
