{
    "asset" : {
        "extensions" : {
            "ASOBO_normal_map_convention" : {
                "tangent_space_convention" : "DirectX"
            }
        },
        "generator" : "Khronos glTF Blender I/O v1.8.19 and Asobo Studio MSFS Blender I/O v1.1.6",
        "version" : "2.0"
    },
    "extensionsUsed" : [
        "ASOBO_normal_map_convention",
        "ASOBO_material_blend_gbuffer"
    ],
    "scene" : 0,
    "scenes" : [
        {
            "name" : "Scene",
            "nodes" : [
                0,
                1,
                2,
                3,
                4,
                5
            ]
        }
    ],
    "nodes" : [
        {
            "mesh" : 0,
            "name" : "tank.001"
        },
        {
            "mesh" : 1,
            "name" : "opening.001"
        },
        {
            "mesh" : 2,
            "name" : "tank_end.002"
        },
        {
            "mesh" : 3,
            "name" : "tank_end.003"
        },
        {
            "mesh" : 4,
            "name" : "tank_logo.002"
        },
        {
            "mesh" : 5,
            "name" : "tank_logo.003"
        }
    ],
    "materials" : [
        {
            "name" : "EDAP COL paint white",
            "pbrMetallicRoughness" : {
                "baseColorFactor" : [
                    0.5204225778579712,
                    0.5204225778579712,
                    0.5204225778579712,
                    1
                ],
                "metallicFactor" : 0,
                "roughnessFactor" : 0.5
            }
        },
        {
            "alphaMode" : "BLEND",
            "extensions" : {
                "ASOBO_material_blend_gbuffer" : {
                    "enabled" : true,
                    "baseColorBlendFactor" : 1,
                    "metallicBlendFactor" : 1,
                    "roughnessBlendFactor" : 1,
                    "normalBlendFactor" : 1,
                    "emissiveBlendFactor" : 1,
                    "occlusionBlendFactor" : 1
                }
            },
            "name" : "EDAP DCL TE logo",
            "pbrMetallicRoughness" : {
                "baseColorTexture" : {
                    "index" : 0
                }
            }
        }
    ],
    "meshes" : [
        {
            "name" : "Cylinder.002",
            "primitives" : [
                {
                    "attributes" : {
                        "POSITION" : 0,
                        "NORMAL" : 1,
                        "TEXCOORD_0" : 2
                    },
                    "indices" : 3,
                    "material" : 0
                }
            ]
        },
        {
            "name" : "Cylinder.008",
            "primitives" : [
                {
                    "attributes" : {
                        "POSITION" : 4,
                        "NORMAL" : 5,
                        "TEXCOORD_0" : 6
                    },
                    "indices" : 7,
                    "material" : 0
                }
            ]
        },
        {
            "name" : "Cylinder.010",
            "primitives" : [
                {
                    "attributes" : {
                        "POSITION" : 8,
                        "NORMAL" : 9,
                        "TEXCOORD_0" : 10
                    },
                    "indices" : 11,
                    "material" : 1
                }
            ]
        },
        {
            "name" : "Cylinder.011",
            "primitives" : [
                {
                    "attributes" : {
                        "POSITION" : 12,
                        "NORMAL" : 13,
                        "TEXCOORD_0" : 14
                    },
                    "indices" : 11,
                    "material" : 1
                }
            ]
        },
        {
            "name" : "Cylinder.012",
            "primitives" : [
                {
                    "attributes" : {
                        "POSITION" : 15,
                        "NORMAL" : 16,
                        "TEXCOORD_0" : 17
                    },
                    "indices" : 18,
                    "material" : 1
                }
            ]
        },
        {
            "name" : "Cylinder.013",
            "primitives" : [
                {
                    "attributes" : {
                        "POSITION" : 19,
                        "NORMAL" : 20,
                        "TEXCOORD_0" : 21
                    },
                    "indices" : 18,
                    "material" : 1
                }
            ]
        }
    ],
    "textures" : [
        {
            "sampler" : 0,
            "source" : 0
        }
    ],
    "images" : [
        {
            "mimeType" : "image/png",
            "name" : "TotalEnergies_logo_negative_space",
            "uri" : "TotalEnergies_logo_negative_space.png"
        }
    ],
    "accessors" : [
        {
            "bufferView" : 0,
            "componentType" : 5126,
            "count" : 1599,
            "max" : [
                1,
                2.151793956756592,
                3.5060839653015137
            ],
            "min" : [
                -1,
                -0.05343127250671387,
                -3.5
            ],
            "type" : "VEC3"
        },
        {
            "bufferView" : 1,
            "componentType" : 5126,
            "count" : 1599,
            "type" : "VEC3"
        },
        {
            "bufferView" : 2,
            "componentType" : 5126,
            "count" : 1599,
            "type" : "VEC2"
        },
        {
            "bufferView" : 3,
            "componentType" : 5123,
            "count" : 4494,
            "type" : "SCALAR"
        },
        {
            "bufferView" : 4,
            "componentType" : 5126,
            "count" : 324,
            "max" : [
                0.479592889547348,
                2.3388164043426514,
                -0.7181560397148132
            ],
            "min" : [
                -0.479592889547348,
                1.725136160850525,
                -1.6773418188095093
            ],
            "type" : "VEC3"
        },
        {
            "bufferView" : 5,
            "componentType" : 5126,
            "count" : 324,
            "type" : "VEC3"
        },
        {
            "bufferView" : 6,
            "componentType" : 5126,
            "count" : 324,
            "type" : "VEC2"
        },
        {
            "bufferView" : 7,
            "componentType" : 5123,
            "count" : 756,
            "type" : "SCALAR"
        },
        {
            "bufferView" : 8,
            "componentType" : 5126,
            "count" : 131,
            "max" : [
                1,
                2.1517934799194336,
                -3.395700693130493
            ],
            "min" : [
                -1,
                0.15179383754730225,
                -3.5
            ],
            "type" : "VEC3"
        },
        {
            "bufferView" : 9,
            "componentType" : 5126,
            "count" : 131,
            "type" : "VEC3"
        },
        {
            "bufferView" : 10,
            "componentType" : 5126,
            "count" : 131,
            "type" : "VEC2"
        },
        {
            "bufferView" : 11,
            "componentType" : 5123,
            "count" : 666,
            "type" : "SCALAR"
        },
        {
            "bufferView" : 12,
            "componentType" : 5126,
            "count" : 131,
            "max" : [
                0.9999988675117493,
                2.1517934799194336,
                3.507244348526001
            ],
            "min" : [
                -1.000001072883606,
                0.15179383754730225,
                3.402944803237915
            ],
            "type" : "VEC3"
        },
        {
            "bufferView" : 13,
            "componentType" : 5126,
            "count" : 131,
            "type" : "VEC3"
        },
        {
            "bufferView" : 14,
            "componentType" : 5126,
            "count" : 131,
            "type" : "VEC2"
        },
        {
            "bufferView" : 15,
            "componentType" : 5126,
            "count" : 16,
            "max" : [
                -0.5555703043937683,
                1.9832631349563599,
                2.954765558242798
            ],
            "min" : [
                -1,
                0.7691097855567932,
                -1.6727426555007696e-08
            ],
            "type" : "VEC3"
        },
        {
            "bufferView" : 16,
            "componentType" : 5126,
            "count" : 16,
            "type" : "VEC3"
        },
        {
            "bufferView" : 17,
            "componentType" : 5126,
            "count" : 16,
            "type" : "VEC2"
        },
        {
            "bufferView" : 18,
            "componentType" : 5123,
            "count" : 42,
            "type" : "SCALAR"
        },
        {
            "bufferView" : 19,
            "componentType" : 5126,
            "count" : 16,
            "max" : [
                1.0021685361862183,
                1.9832631349563599,
                2.9576194286346436
            ],
            "min" : [
                0.5577378273010254,
                0.7691097855567932,
                0.002853870391845703
            ],
            "type" : "VEC3"
        },
        {
            "bufferView" : 20,
            "componentType" : 5126,
            "count" : 16,
            "type" : "VEC3"
        },
        {
            "bufferView" : 21,
            "componentType" : 5126,
            "count" : 16,
            "type" : "VEC2"
        }
    ],
    "bufferViews" : [
        {
            "buffer" : 0,
            "byteLength" : 19188,
            "byteOffset" : 0
        },
        {
            "buffer" : 0,
            "byteLength" : 19188,
            "byteOffset" : 19188
        },
        {
            "buffer" : 0,
            "byteLength" : 12792,
            "byteOffset" : 38376
        },
        {
            "buffer" : 0,
            "byteLength" : 8988,
            "byteOffset" : 51168
        },
        {
            "buffer" : 0,
            "byteLength" : 3888,
            "byteOffset" : 60156
        },
        {
            "buffer" : 0,
            "byteLength" : 3888,
            "byteOffset" : 64044
        },
        {
            "buffer" : 0,
            "byteLength" : 2592,
            "byteOffset" : 67932
        },
        {
            "buffer" : 0,
            "byteLength" : 1512,
            "byteOffset" : 70524
        },
        {
            "buffer" : 0,
            "byteLength" : 1572,
            "byteOffset" : 72036
        },
        {
            "buffer" : 0,
            "byteLength" : 1572,
            "byteOffset" : 73608
        },
        {
            "buffer" : 0,
            "byteLength" : 1048,
            "byteOffset" : 75180
        },
        {
            "buffer" : 0,
            "byteLength" : 1332,
            "byteOffset" : 76228
        },
        {
            "buffer" : 0,
            "byteLength" : 1572,
            "byteOffset" : 77560
        },
        {
            "buffer" : 0,
            "byteLength" : 1572,
            "byteOffset" : 79132
        },
        {
            "buffer" : 0,
            "byteLength" : 1048,
            "byteOffset" : 80704
        },
        {
            "buffer" : 0,
            "byteLength" : 192,
            "byteOffset" : 81752
        },
        {
            "buffer" : 0,
            "byteLength" : 192,
            "byteOffset" : 81944
        },
        {
            "buffer" : 0,
            "byteLength" : 128,
            "byteOffset" : 82136
        },
        {
            "buffer" : 0,
            "byteLength" : 84,
            "byteOffset" : 82264
        },
        {
            "buffer" : 0,
            "byteLength" : 192,
            "byteOffset" : 82348
        },
        {
            "buffer" : 0,
            "byteLength" : 192,
            "byteOffset" : 82540
        },
        {
            "buffer" : 0,
            "byteLength" : 128,
            "byteOffset" : 82732
        }
    ],
    "samplers" : [
        {
            "magFilter" : 9729,
            "minFilter" : 9987
        }
    ],
    "buffers" : [
        {
            "byteLength" : 82860,
            "uri" : "edap-tank_LOD01.bin"
        }
    ]
}
