{
    "asset" : {
        "extensions" : {
            "ASOBO_normal_map_convention" : {
                "tangent_space_convention" : "DirectX"
            }
        },
        "generator" : "Khronos glTF Blender I/O v1.8.19 and Asobo Studio MSFS Blender I/O v1.1.6",
        "version" : "2.0"
    },
    "extensionsUsed" : [
        "ASOBO_normal_map_convention",
        "ASOBO_material_shadow_options",
        "ASOBO_material_blend_gbuffer"
    ],
    "scene" : 0,
    "scenes" : [
        {
            "name" : "Scene",
            "nodes" : [
                0,
                1,
                2,
                3,
                4,
                5,
                6,
                7,
                8
            ]
        }
    ],
    "nodes" : [
        {
            "mesh" : 0,
            "name" : "tank"
        },
        {
            "mesh" : 1,
            "name" : "opening"
        },
        {
            "mesh" : 2,
            "name" : "bolt"
        },
        {
            "mesh" : 3,
            "name" : "tank_end"
        },
        {
            "mesh" : 4,
            "name" : "tank_end.001"
        },
        {
            "mesh" : 5,
            "name" : "tank_logo"
        },
        {
            "mesh" : 6,
            "name" : "tank_logo.001"
        },
        {
            "mesh" : 7,
            "name" : "tank_grime"
        },
        {
            "mesh" : 8,
            "name" : "tank_grime.001"
        }
    ],
    "materials" : [
        {
            "name" : "EDAP paint white",
            "pbrMetallicRoughness" : {
                "baseColorFactor" : [
                    0.5204225778579712,
                    0.5204225778579712,
                    0.5204225778579712,
                    1
                ],
                "metallicFactor" : 0,
                "roughnessFactor" : 0.5
            }
        },
        {
            "extensions" : {
                "ASOBO_material_shadow_options" : {
                    "noCastShadow" : true
                }
            },
            "name" : "EDAP metal dark",
            "pbrMetallicRoughness" : {
                "baseColorFactor" : [
                    0.012338133528828621,
                    0.014516371302306652,
                    0.016066022217273712,
                    1
                ],
                "metallicFactor" : 0,
                "roughnessFactor" : 0.40000003576278687
            }
        },
        {
            "alphaMode" : "BLEND",
            "extensions" : {
                "ASOBO_material_blend_gbuffer" : {
                    "enabled" : true,
                    "baseColorBlendFactor" : 1,
                    "metallicBlendFactor" : 1,
                    "roughnessBlendFactor" : 1,
                    "normalBlendFactor" : 1,
                    "emissiveBlendFactor" : 1,
                    "occlusionBlendFactor" : 1
                }
            },
            "name" : "EDAP TE logo",
            "pbrMetallicRoughness" : {
                "baseColorTexture" : {
                    "index" : 0
                }
            }
        },
        {
            "alphaMode" : "BLEND",
            "extensions" : {
                "ASOBO_material_blend_gbuffer" : {
                    "enabled" : true,
                    "baseColorBlendFactor" : 1,
                    "metallicBlendFactor" : 1,
                    "roughnessBlendFactor" : 1,
                    "normalBlendFactor" : 1,
                    "emissiveBlendFactor" : 1,
                    "occlusionBlendFactor" : 1
                }
            },
            "name" : "EDAP grime",
            "pbrMetallicRoughness" : {
                "baseColorTexture" : {
                    "index" : 1
                }
            }
        }
    ],
    "meshes" : [
        {
            "name" : "Cylinder",
            "primitives" : [
                {
                    "attributes" : {
                        "POSITION" : 0,
                        "NORMAL" : 1,
                        "TEXCOORD_0" : 2
                    },
                    "indices" : 3,
                    "material" : 0
                }
            ]
        },
        {
            "name" : "Cylinder.001",
            "primitives" : [
                {
                    "attributes" : {
                        "POSITION" : 4,
                        "NORMAL" : 5,
                        "TEXCOORD_0" : 6
                    },
                    "indices" : 7,
                    "material" : 0
                }
            ]
        },
        {
            "name" : "Cylinder.003",
            "primitives" : [
                {
                    "attributes" : {
                        "POSITION" : 8,
                        "NORMAL" : 9,
                        "TEXCOORD_0" : 10
                    },
                    "indices" : 11,
                    "material" : 1
                }
            ]
        },
        {
            "name" : "Cylinder.004",
            "primitives" : [
                {
                    "attributes" : {
                        "POSITION" : 12,
                        "NORMAL" : 13,
                        "TEXCOORD_0" : 14
                    },
                    "indices" : 15,
                    "material" : 2
                }
            ]
        },
        {
            "name" : "Cylinder.005",
            "primitives" : [
                {
                    "attributes" : {
                        "POSITION" : 16,
                        "NORMAL" : 17,
                        "TEXCOORD_0" : 18
                    },
                    "indices" : 15,
                    "material" : 2
                }
            ]
        },
        {
            "name" : "Cylinder.006",
            "primitives" : [
                {
                    "attributes" : {
                        "POSITION" : 19,
                        "NORMAL" : 20,
                        "TEXCOORD_0" : 21
                    },
                    "indices" : 22,
                    "material" : 2
                }
            ]
        },
        {
            "name" : "Cylinder.007",
            "primitives" : [
                {
                    "attributes" : {
                        "POSITION" : 23,
                        "NORMAL" : 24,
                        "TEXCOORD_0" : 25
                    },
                    "indices" : 22,
                    "material" : 2
                }
            ]
        },
        {
            "name" : "Cylinder.018",
            "primitives" : [
                {
                    "attributes" : {
                        "POSITION" : 26,
                        "NORMAL" : 27,
                        "TEXCOORD_0" : 28
                    },
                    "indices" : 29,
                    "material" : 3
                }
            ]
        },
        {
            "name" : "Cylinder.020",
            "primitives" : [
                {
                    "attributes" : {
                        "POSITION" : 30,
                        "NORMAL" : 31,
                        "TEXCOORD_0" : 32
                    },
                    "indices" : 29,
                    "material" : 3
                }
            ]
        }
    ],
    "textures" : [
        {
            "sampler" : 0,
            "source" : 0
        },
        {
            "sampler" : 0,
            "source" : 1
        }
    ],
    "images" : [
        {
            "mimeType" : "image/png",
            "name" : "TotalEnergies_logo_negative_space",
            "uri" : "TotalEnergies_logo_negative_space.png"
        },
        {
            "mimeType" : "image/png",
            "name" : "DecalBottom0049_2_seamless_S",
            "uri" : "DecalBottom0049_2_seamless_S.png"
        }
    ],
    "accessors" : [
        {
            "bufferView" : 0,
            "componentType" : 5126,
            "count" : 1599,
            "max" : [
                1,
                2.151793956756592,
                3.5060839653015137
            ],
            "min" : [
                -1,
                -0.05343127250671387,
                -3.5
            ],
            "type" : "VEC3"
        },
        {
            "bufferView" : 1,
            "componentType" : 5126,
            "count" : 1599,
            "type" : "VEC3"
        },
        {
            "bufferView" : 2,
            "componentType" : 5126,
            "count" : 1599,
            "type" : "VEC2"
        },
        {
            "bufferView" : 3,
            "componentType" : 5123,
            "count" : 4494,
            "type" : "SCALAR"
        },
        {
            "bufferView" : 4,
            "componentType" : 5126,
            "count" : 324,
            "max" : [
                0.479592889547348,
                2.3388164043426514,
                -0.7181560397148132
            ],
            "min" : [
                -0.479592889547348,
                1.725136160850525,
                -1.6773418188095093
            ],
            "type" : "VEC3"
        },
        {
            "bufferView" : 5,
            "componentType" : 5126,
            "count" : 324,
            "type" : "VEC3"
        },
        {
            "bufferView" : 6,
            "componentType" : 5126,
            "count" : 324,
            "type" : "VEC2"
        },
        {
            "bufferView" : 7,
            "componentType" : 5123,
            "count" : 756,
            "type" : "SCALAR"
        },
        {
            "bufferView" : 8,
            "componentType" : 5126,
            "count" : 5344,
            "max" : [
                0.45597022771835327,
                2.382960319519043,
                -0.7418258786201477
            ],
            "min" : [
                -0.4558752775192261,
                2.1994333267211914,
                -1.6537656784057617
            ],
            "type" : "VEC3"
        },
        {
            "bufferView" : 9,
            "componentType" : 5126,
            "count" : 5344,
            "type" : "VEC3"
        },
        {
            "bufferView" : 10,
            "componentType" : 5126,
            "count" : 5344,
            "type" : "VEC2"
        },
        {
            "bufferView" : 11,
            "componentType" : 5123,
            "count" : 11136,
            "type" : "SCALAR"
        },
        {
            "bufferView" : 12,
            "componentType" : 5126,
            "count" : 131,
            "max" : [
                1,
                2.1517934799194336,
                -3.395700693130493
            ],
            "min" : [
                -1,
                0.15179383754730225,
                -3.5
            ],
            "type" : "VEC3"
        },
        {
            "bufferView" : 13,
            "componentType" : 5126,
            "count" : 131,
            "type" : "VEC3"
        },
        {
            "bufferView" : 14,
            "componentType" : 5126,
            "count" : 131,
            "type" : "VEC2"
        },
        {
            "bufferView" : 15,
            "componentType" : 5123,
            "count" : 666,
            "type" : "SCALAR"
        },
        {
            "bufferView" : 16,
            "componentType" : 5126,
            "count" : 131,
            "max" : [
                0.9999988675117493,
                2.1517934799194336,
                3.507244348526001
            ],
            "min" : [
                -1.000001072883606,
                0.15179383754730225,
                3.402944803237915
            ],
            "type" : "VEC3"
        },
        {
            "bufferView" : 17,
            "componentType" : 5126,
            "count" : 131,
            "type" : "VEC3"
        },
        {
            "bufferView" : 18,
            "componentType" : 5126,
            "count" : 131,
            "type" : "VEC2"
        },
        {
            "bufferView" : 19,
            "componentType" : 5126,
            "count" : 16,
            "max" : [
                -0.5555703043937683,
                1.9832631349563599,
                2.954765558242798
            ],
            "min" : [
                -1,
                0.7691097855567932,
                -1.6727426555007696e-08
            ],
            "type" : "VEC3"
        },
        {
            "bufferView" : 20,
            "componentType" : 5126,
            "count" : 16,
            "type" : "VEC3"
        },
        {
            "bufferView" : 21,
            "componentType" : 5126,
            "count" : 16,
            "type" : "VEC2"
        },
        {
            "bufferView" : 22,
            "componentType" : 5123,
            "count" : 42,
            "type" : "SCALAR"
        },
        {
            "bufferView" : 23,
            "componentType" : 5126,
            "count" : 16,
            "max" : [
                1.0021685361862183,
                1.9832631349563599,
                2.9576194286346436
            ],
            "min" : [
                0.5577378273010254,
                0.7691097855567932,
                0.002853870391845703
            ],
            "type" : "VEC3"
        },
        {
            "bufferView" : 24,
            "componentType" : 5126,
            "count" : 16,
            "type" : "VEC3"
        },
        {
            "bufferView" : 25,
            "componentType" : 5126,
            "count" : 16,
            "type" : "VEC2"
        },
        {
            "bufferView" : 26,
            "componentType" : 5126,
            "count" : 42,
            "max" : [
                -0.20176303386688232,
                2.0756733417510986,
                0.09207236766815186
            ],
            "min" : [
                -1.006672739982605,
                0.17100805044174194,
                -3.2353515625
            ],
            "type" : "VEC3"
        },
        {
            "bufferView" : 27,
            "componentType" : 5126,
            "count" : 42,
            "type" : "VEC3"
        },
        {
            "bufferView" : 28,
            "componentType" : 5126,
            "count" : 42,
            "type" : "VEC2"
        },
        {
            "bufferView" : 29,
            "componentType" : 5123,
            "count" : 156,
            "type" : "SCALAR"
        },
        {
            "bufferView" : 30,
            "componentType" : 5126,
            "count" : 42,
            "max" : [
                1.0031098127365112,
                2.0756733417510986,
                0.7996779084205627
            ],
            "min" : [
                0.19819828867912292,
                0.17100805044174194,
                -3.2598142623901367
            ],
            "type" : "VEC3"
        },
        {
            "bufferView" : 31,
            "componentType" : 5126,
            "count" : 42,
            "type" : "VEC3"
        },
        {
            "bufferView" : 32,
            "componentType" : 5126,
            "count" : 42,
            "type" : "VEC2"
        }
    ],
    "bufferViews" : [
        {
            "buffer" : 0,
            "byteLength" : 19188,
            "byteOffset" : 0
        },
        {
            "buffer" : 0,
            "byteLength" : 19188,
            "byteOffset" : 19188
        },
        {
            "buffer" : 0,
            "byteLength" : 12792,
            "byteOffset" : 38376
        },
        {
            "buffer" : 0,
            "byteLength" : 8988,
            "byteOffset" : 51168
        },
        {
            "buffer" : 0,
            "byteLength" : 3888,
            "byteOffset" : 60156
        },
        {
            "buffer" : 0,
            "byteLength" : 3888,
            "byteOffset" : 64044
        },
        {
            "buffer" : 0,
            "byteLength" : 2592,
            "byteOffset" : 67932
        },
        {
            "buffer" : 0,
            "byteLength" : 1512,
            "byteOffset" : 70524
        },
        {
            "buffer" : 0,
            "byteLength" : 64128,
            "byteOffset" : 72036
        },
        {
            "buffer" : 0,
            "byteLength" : 64128,
            "byteOffset" : 136164
        },
        {
            "buffer" : 0,
            "byteLength" : 42752,
            "byteOffset" : 200292
        },
        {
            "buffer" : 0,
            "byteLength" : 22272,
            "byteOffset" : 243044
        },
        {
            "buffer" : 0,
            "byteLength" : 1572,
            "byteOffset" : 265316
        },
        {
            "buffer" : 0,
            "byteLength" : 1572,
            "byteOffset" : 266888
        },
        {
            "buffer" : 0,
            "byteLength" : 1048,
            "byteOffset" : 268460
        },
        {
            "buffer" : 0,
            "byteLength" : 1332,
            "byteOffset" : 269508
        },
        {
            "buffer" : 0,
            "byteLength" : 1572,
            "byteOffset" : 270840
        },
        {
            "buffer" : 0,
            "byteLength" : 1572,
            "byteOffset" : 272412
        },
        {
            "buffer" : 0,
            "byteLength" : 1048,
            "byteOffset" : 273984
        },
        {
            "buffer" : 0,
            "byteLength" : 192,
            "byteOffset" : 275032
        },
        {
            "buffer" : 0,
            "byteLength" : 192,
            "byteOffset" : 275224
        },
        {
            "buffer" : 0,
            "byteLength" : 128,
            "byteOffset" : 275416
        },
        {
            "buffer" : 0,
            "byteLength" : 84,
            "byteOffset" : 275544
        },
        {
            "buffer" : 0,
            "byteLength" : 192,
            "byteOffset" : 275628
        },
        {
            "buffer" : 0,
            "byteLength" : 192,
            "byteOffset" : 275820
        },
        {
            "buffer" : 0,
            "byteLength" : 128,
            "byteOffset" : 276012
        },
        {
            "buffer" : 0,
            "byteLength" : 504,
            "byteOffset" : 276140
        },
        {
            "buffer" : 0,
            "byteLength" : 504,
            "byteOffset" : 276644
        },
        {
            "buffer" : 0,
            "byteLength" : 336,
            "byteOffset" : 277148
        },
        {
            "buffer" : 0,
            "byteLength" : 312,
            "byteOffset" : 277484
        },
        {
            "buffer" : 0,
            "byteLength" : 504,
            "byteOffset" : 277796
        },
        {
            "buffer" : 0,
            "byteLength" : 504,
            "byteOffset" : 278300
        },
        {
            "buffer" : 0,
            "byteLength" : 336,
            "byteOffset" : 278804
        }
    ],
    "samplers" : [
        {
            "magFilter" : 9729,
            "minFilter" : 9987
        }
    ],
    "buffers" : [
        {
            "byteLength" : 279140,
            "uri" : "edap-tank_LOD00.bin"
        }
    ]
}
