{
    "asset" : {
        "extensions" : {
            "ASOBO_normal_map_convention" : {
                "tangent_space_convention" : "DirectX"
            }
        },
        "generator" : "Khronos glTF Blender I/O v1.8.19 and Asobo Studio MSFS Blender I/O v1.1.6",
        "version" : "2.0"
    },
    "extensionsUsed" : [
        "ASOBO_normal_map_convention"
    ],
    "scene" : 0,
    "scenes" : [
        {
            "name" : "Scene",
            "nodes" : [
                0,
                1
            ]
        }
    ],
    "nodes" : [
        {
            "mesh" : 0,
            "name" : "tank.002"
        },
        {
            "mesh" : 1,
            "name" : "opening.002"
        }
    ],
    "materials" : [
        {
            "name" : "EDAP COL paint white",
            "pbrMetallicRoughness" : {
                "baseColorFactor" : [
                    0.5204225778579712,
                    0.5204225778579712,
                    0.5204225778579712,
                    1
                ],
                "metallicFactor" : 0,
                "roughnessFactor" : 0.5
            }
        }
    ],
    "meshes" : [
        {
            "name" : "Cylinder.016",
            "primitives" : [
                {
                    "attributes" : {
                        "POSITION" : 0,
                        "NORMAL" : 1,
                        "TEXCOORD_0" : 2
                    },
                    "indices" : 3,
                    "material" : 0
                }
            ]
        },
        {
            "name" : "Cylinder.017",
            "primitives" : [
                {
                    "attributes" : {
                        "POSITION" : 4,
                        "NORMAL" : 5,
                        "TEXCOORD_0" : 6
                    },
                    "indices" : 7,
                    "material" : 0
                }
            ]
        }
    ],
    "accessors" : [
        {
            "bufferView" : 0,
            "componentType" : 5126,
            "count" : 1599,
            "max" : [
                1,
                2.151793956756592,
                3.5060839653015137
            ],
            "min" : [
                -1,
                -0.05343127250671387,
                -3.5
            ],
            "type" : "VEC3"
        },
        {
            "bufferView" : 1,
            "componentType" : 5126,
            "count" : 1599,
            "type" : "VEC3"
        },
        {
            "bufferView" : 2,
            "componentType" : 5126,
            "count" : 1599,
            "type" : "VEC2"
        },
        {
            "bufferView" : 3,
            "componentType" : 5123,
            "count" : 4494,
            "type" : "SCALAR"
        },
        {
            "bufferView" : 4,
            "componentType" : 5126,
            "count" : 324,
            "max" : [
                0.479592889547348,
                2.3388164043426514,
                -0.7181560397148132
            ],
            "min" : [
                -0.479592889547348,
                1.725136160850525,
                -1.6773418188095093
            ],
            "type" : "VEC3"
        },
        {
            "bufferView" : 5,
            "componentType" : 5126,
            "count" : 324,
            "type" : "VEC3"
        },
        {
            "bufferView" : 6,
            "componentType" : 5126,
            "count" : 324,
            "type" : "VEC2"
        },
        {
            "bufferView" : 7,
            "componentType" : 5123,
            "count" : 756,
            "type" : "SCALAR"
        }
    ],
    "bufferViews" : [
        {
            "buffer" : 0,
            "byteLength" : 19188,
            "byteOffset" : 0
        },
        {
            "buffer" : 0,
            "byteLength" : 19188,
            "byteOffset" : 19188
        },
        {
            "buffer" : 0,
            "byteLength" : 12792,
            "byteOffset" : 38376
        },
        {
            "buffer" : 0,
            "byteLength" : 8988,
            "byteOffset" : 51168
        },
        {
            "buffer" : 0,
            "byteLength" : 3888,
            "byteOffset" : 60156
        },
        {
            "buffer" : 0,
            "byteLength" : 3888,
            "byteOffset" : 64044
        },
        {
            "buffer" : 0,
            "byteLength" : 2592,
            "byteOffset" : 67932
        },
        {
            "buffer" : 0,
            "byteLength" : 1512,
            "byteOffset" : 70524
        }
    ],
    "buffers" : [
        {
            "byteLength" : 72036,
            "uri" : "edap-tank_LOD02.bin"
        }
    ]
}
