{
    "asset" : {
        "extensions" : {
            "ASOBO_normal_map_convention" : {
                "tangent_space_convention" : "DirectX"
            }
        },
        "generator" : "Khronos glTF Blender I/O v1.8.19 and Asobo Studio MSFS Blender I/O v1.1.6",
        "version" : "2.0"
    },
    "extensionsUsed" : [
        "ASOBO_normal_map_convention",
        "ASOBO_material_shadow_options",
        "ASOBO_material_blend_gbuffer"
    ],
    "scene" : 0,
    "scenes" : [
        {
            "name" : "Scene",
            "nodes" : [
                0,
                1,
                2,
                3,
                4
            ]
        }
    ],
    "nodes" : [
        {
            "mesh" : 0,
            "name" : "roof.001"
        },
        {
            "mesh" : 1,
            "name" : "body.001"
        },
        {
            "mesh" : 2,
            "name" : "vent.001"
        },
        {
            "mesh" : 3,
            "name" : "small doors dirt.001"
        },
        {
            "name" : "Box Collision.001",
            "scale" : [
                5.915290355682373,
                2.6702351570129395,
                4.305685043334961
            ],
            "translation" : [
                0.8581548929214478,
                2.673595428466797,
                -0.7499071359634399
            ]
        }
    ],
    "materials" : [
        {
            "name" : "EDAP COL paint dark blue",
            "pbrMetallicRoughness" : {
                "baseColorFactor" : [
                    0.0032148670870810747,
                    0.026819149032235146,
                    0.05582427233457565,
                    1
                ],
                "metallicFactor" : 0
            }
        },
        {
            "name" : "EDAP PBR roofing bitumen",
            "normalTexture" : {
                "index" : 0
            },
            "pbrMetallicRoughness" : {
                "baseColorFactor" : [
                    0.2812080681324005,
                    0.2812080681324005,
                    0.2812080681324005,
                    1
                ],
                "baseColorTexture" : {
                    "index" : 1
                },
                "metallicFactor" : 0,
                "metallicRoughnessTexture" : {
                    "index" : 2
                }
            }
        },
        {
            "name" : "EDAP PBR plaster painted white",
            "normalTexture" : {
                "index" : 3
            },
            "pbrMetallicRoughness" : {
                "baseColorFactor" : [
                    0.9999988079071045,
                    0.9999989867210388,
                    1,
                    1
                ],
                "baseColorTexture" : {
                    "index" : 4
                },
                "metallicFactor" : 0,
                "metallicRoughnessTexture" : {
                    "index" : 5
                }
            }
        },
        {
            "name" : "EDAP COL paint white",
            "pbrMetallicRoughness" : {
                "baseColorFactor" : [
                    0.5204225778579712,
                    0.5204225778579712,
                    0.5204225778579712,
                    1
                ],
                "metallicFactor" : 0,
                "roughnessFactor" : 0.5
            }
        },
        {
            "name" : "EDAP COL paint light blue",
            "pbrMetallicRoughness" : {
                "baseColorFactor" : [
                    0.27469602227211,
                    0.38134586811065674,
                    0.4764259457588196,
                    1
                ],
                "metallicFactor" : 0,
                "roughnessFactor" : 0.5
            }
        },
        {
            "name" : "EDAP PBR service building door",
            "normalTexture" : {
                "index" : 6
            },
            "occlusionTexture" : {
                "index" : 7
            },
            "pbrMetallicRoughness" : {
                "baseColorTexture" : {
                    "index" : 8
                },
                "metallicFactor" : 0,
                "metallicRoughnessTexture" : {
                    "index" : 7
                }
            }
        },
        {
            "name" : "EDAP COL service building paint white vent",
            "pbrMetallicRoughness" : {
                "baseColorFactor" : [
                    0.3762546479701996,
                    0.3311144709587097,
                    0.2714458107948303,
                    1
                ],
                "metallicFactor" : 0,
                "roughnessFactor" : 0.5
            }
        },
        {
            "extensions" : {
                "ASOBO_material_shadow_options" : {
                    "noCastShadow" : true
                }
            },
            "name" : "EDAP COL no light",
            "pbrMetallicRoughness" : {
                "baseColorFactor" : [
                    0.02208416536450386,
                    0.02208416536450386,
                    0.02208416536450386,
                    1
                ]
            }
        },
        {
            "alphaMode" : "BLEND",
            "extensions" : {
                "ASOBO_material_blend_gbuffer" : {
                    "enabled" : true,
                    "baseColorBlendFactor" : 1,
                    "metallicBlendFactor" : 1,
                    "roughnessBlendFactor" : 1,
                    "normalBlendFactor" : 1,
                    "emissiveBlendFactor" : 1,
                    "occlusionBlendFactor" : 1
                },
                "ASOBO_material_shadow_options" : {
                    "noCastShadow" : true
                }
            },
            "name" : "EDAP DCL dirt",
            "pbrMetallicRoughness" : {
                "baseColorTexture" : {
                    "index" : 9
                }
            }
        }
    ],
    "meshes" : [
        {
            "name" : "Cube.005",
            "primitives" : [
                {
                    "attributes" : {
                        "POSITION" : 0,
                        "NORMAL" : 1,
                        "TEXCOORD_0" : 2
                    },
                    "indices" : 3,
                    "material" : 0
                },
                {
                    "attributes" : {
                        "POSITION" : 4,
                        "NORMAL" : 5,
                        "TEXCOORD_0" : 6
                    },
                    "indices" : 7,
                    "material" : 1
                }
            ]
        },
        {
            "name" : "Cube.006",
            "primitives" : [
                {
                    "attributes" : {
                        "POSITION" : 8,
                        "NORMAL" : 9,
                        "TEXCOORD_0" : 10
                    },
                    "indices" : 11,
                    "material" : 2
                },
                {
                    "attributes" : {
                        "POSITION" : 12,
                        "NORMAL" : 13,
                        "TEXCOORD_0" : 14
                    },
                    "indices" : 15,
                    "material" : 0
                },
                {
                    "attributes" : {
                        "POSITION" : 16,
                        "NORMAL" : 17,
                        "TEXCOORD_0" : 18
                    },
                    "indices" : 19,
                    "material" : 3
                },
                {
                    "attributes" : {
                        "POSITION" : 20,
                        "NORMAL" : 21,
                        "TEXCOORD_0" : 22
                    },
                    "indices" : 23,
                    "material" : 4
                },
                {
                    "attributes" : {
                        "POSITION" : 24,
                        "NORMAL" : 25,
                        "TEXCOORD_0" : 26
                    },
                    "indices" : 27,
                    "material" : 5
                }
            ]
        },
        {
            "name" : "Cube.007",
            "primitives" : [
                {
                    "attributes" : {
                        "POSITION" : 28,
                        "NORMAL" : 29,
                        "TEXCOORD_0" : 30
                    },
                    "indices" : 31,
                    "material" : 6
                },
                {
                    "attributes" : {
                        "POSITION" : 32,
                        "NORMAL" : 33,
                        "TEXCOORD_0" : 34
                    },
                    "indices" : 35,
                    "material" : 7
                }
            ]
        },
        {
            "name" : "Cube.009",
            "primitives" : [
                {
                    "attributes" : {
                        "POSITION" : 36,
                        "NORMAL" : 37,
                        "TEXCOORD_0" : 38
                    },
                    "indices" : 19,
                    "material" : 8
                }
            ]
        }
    ],
    "textures" : [
        {
            "sampler" : 0,
            "source" : 0
        },
        {
            "sampler" : 0,
            "source" : 1
        },
        {
            "sampler" : 0,
            "source" : 2
        },
        {
            "sampler" : 0,
            "source" : 3
        },
        {
            "sampler" : 0,
            "source" : 4
        },
        {
            "sampler" : 0,
            "source" : 5
        },
        {
            "sampler" : 0,
            "source" : 6
        },
        {
            "sampler" : 0,
            "source" : 7
        },
        {
            "sampler" : 0,
            "source" : 8
        },
        {
            "sampler" : 0,
            "source" : 9
        }
    ],
    "images" : [
        {
            "mimeType" : "image/png",
            "name" : "rooftiles_bitumen-normal_flipped",
            "uri" : "rooftiles_bitumen-normal_flipped.png"
        },
        {
            "mimeType" : "image/png",
            "name" : "rooftiles_bitumen-albedo",
            "uri" : "rooftiles_bitumen-albedo.png"
        },
        {
            "mimeType" : "image/png",
            "name" : "rooftiles_bitumen-composite",
            "uri" : "rooftiles_bitumen-composite.png"
        },
        {
            "mimeType" : "image/png",
            "name" : "plaster_Normal",
            "uri" : "plaster_Normal.png"
        },
        {
            "mimeType" : "image/png",
            "name" : "plaster_Base_Color",
            "uri" : "plaster_Base_Color.png"
        },
        {
            "mimeType" : "image/png",
            "name" : "plaster_composite",
            "uri" : "plaster_composite.png"
        },
        {
            "mimeType" : "image/png",
            "name" : "edap-service-building-door-normal_flipped",
            "uri" : "edap-service-building-door-normal_flipped.png"
        },
        {
            "mimeType" : "image/png",
            "name" : "edap-service-building-door-composite",
            "uri" : "edap-service-building-door-composite.png"
        },
        {
            "mimeType" : "image/png",
            "name" : "edap-service-building-door-albedo",
            "uri" : "edap-service-building-door-albedo.png"
        },
        {
            "mimeType" : "image/png",
            "name" : "DecalsDamagePlaster0074_1_masked_S",
            "uri" : "DecalsDamagePlaster0074_1_masked_S.png"
        }
    ],
    "accessors" : [
        {
            "bufferView" : 0,
            "componentType" : 5126,
            "count" : 64,
            "max" : [
                6.918662071228027,
                5.327228546142578,
                3.611579418182373
            ],
            "min" : [
                -5.1828389167785645,
                5.012019634246826,
                -5.124216079711914
            ],
            "type" : "VEC3"
        },
        {
            "bufferView" : 1,
            "componentType" : 5126,
            "count" : 64,
            "type" : "VEC3"
        },
        {
            "bufferView" : 2,
            "componentType" : 5126,
            "count" : 64,
            "type" : "VEC2"
        },
        {
            "bufferView" : 3,
            "componentType" : 5123,
            "count" : 96,
            "type" : "SCALAR"
        },
        {
            "bufferView" : 4,
            "componentType" : 5126,
            "count" : 4,
            "max" : [
                6.91737699508667,
                5.327228546142578,
                3.610769748687744
            ],
            "min" : [
                -5.181717395782471,
                5.327228546142578,
                -5.123264312744141
            ],
            "type" : "VEC3"
        },
        {
            "bufferView" : 5,
            "componentType" : 5126,
            "count" : 4,
            "type" : "VEC3"
        },
        {
            "bufferView" : 6,
            "componentType" : 5126,
            "count" : 4,
            "type" : "VEC2"
        },
        {
            "bufferView" : 7,
            "componentType" : 5123,
            "count" : 6,
            "type" : "SCALAR"
        },
        {
            "bufferView" : 8,
            "componentType" : 5126,
            "count" : 152,
            "max" : [
                6.750946521759033,
                5.016021251678467,
                3.505920171737671
            ],
            "min" : [
                -5.036418437957764,
                0.2992344796657562,
                -5
            ],
            "type" : "VEC3"
        },
        {
            "bufferView" : 9,
            "componentType" : 5126,
            "count" : 152,
            "type" : "VEC3"
        },
        {
            "bufferView" : 10,
            "componentType" : 5126,
            "count" : 152,
            "type" : "VEC2"
        },
        {
            "bufferView" : 11,
            "componentType" : 5123,
            "count" : 366,
            "type" : "SCALAR"
        },
        {
            "bufferView" : 12,
            "componentType" : 5126,
            "count" : 258,
            "max" : [
                6.750946521759033,
                2.2009634971618652,
                3.505920171737671
            ],
            "min" : [
                -5.036418437957764,
                -0.0008736848831176758,
                -5
            ],
            "type" : "VEC3"
        },
        {
            "bufferView" : 13,
            "componentType" : 5126,
            "count" : 258,
            "type" : "VEC3"
        },
        {
            "bufferView" : 14,
            "componentType" : 5126,
            "count" : 258,
            "type" : "VEC2"
        },
        {
            "bufferView" : 15,
            "componentType" : 5123,
            "count" : 540,
            "type" : "SCALAR"
        },
        {
            "bufferView" : 16,
            "componentType" : 5126,
            "count" : 12,
            "max" : [
                6.170016765594482,
                1.6896133422851562,
                3.4058234691619873
            ],
            "min" : [
                3.6769776344299316,
                0.16217970848083496,
                3.4029083251953125
            ],
            "type" : "VEC3"
        },
        {
            "bufferView" : 17,
            "componentType" : 5126,
            "count" : 12,
            "type" : "VEC3"
        },
        {
            "bufferView" : 18,
            "componentType" : 5126,
            "count" : 12,
            "type" : "VEC2"
        },
        {
            "bufferView" : 19,
            "componentType" : 5123,
            "count" : 18,
            "type" : "SCALAR"
        },
        {
            "bufferView" : 20,
            "componentType" : 5126,
            "count" : 40,
            "max" : [
                6.265178680419922,
                1.7854427099227905,
                3.4058234691619873
            ],
            "min" : [
                3.5721142292022705,
                0.06635022163391113,
                3.4029083251953125
            ],
            "type" : "VEC3"
        },
        {
            "bufferView" : 21,
            "componentType" : 5126,
            "count" : 40,
            "type" : "VEC3"
        },
        {
            "bufferView" : 22,
            "componentType" : 5126,
            "count" : 40,
            "type" : "VEC2"
        },
        {
            "bufferView" : 23,
            "componentType" : 5123,
            "count" : 72,
            "type" : "SCALAR"
        },
        {
            "bufferView" : 24,
            "componentType" : 5126,
            "count" : 10,
            "max" : [
                6.551333904266357,
                2.112473726272583,
                3.337974786758423
            ],
            "min" : [
                0.09049844741821289,
                -0.0008736848831176758,
                -4.33417272567749
            ],
            "type" : "VEC3"
        },
        {
            "bufferView" : 25,
            "componentType" : 5126,
            "count" : 10,
            "type" : "VEC3"
        },
        {
            "bufferView" : 26,
            "componentType" : 5126,
            "count" : 10,
            "type" : "VEC2"
        },
        {
            "bufferView" : 27,
            "componentType" : 5123,
            "count" : 18,
            "type" : "SCALAR"
        },
        {
            "bufferView" : 28,
            "componentType" : 5126,
            "count" : 569,
            "max" : [
                6.898873805999756,
                3.9904847145080566,
                3.15146541595459
            ],
            "min" : [
                6.7561845779418945,
                3.3323817253112793,
                2.465424060821533
            ],
            "type" : "VEC3"
        },
        {
            "bufferView" : 29,
            "componentType" : 5126,
            "count" : 569,
            "type" : "VEC3"
        },
        {
            "bufferView" : 30,
            "componentType" : 5126,
            "count" : 569,
            "type" : "VEC2"
        },
        {
            "bufferView" : 31,
            "componentType" : 5123,
            "count" : 909,
            "type" : "SCALAR"
        },
        {
            "bufferView" : 32,
            "componentType" : 5126,
            "count" : 54,
            "max" : [
                6.757444381713867,
                3.9904847145080566,
                3.15146541595459
            ],
            "min" : [
                6.7561845779418945,
                3.334023952484131,
                2.4654455184936523
            ],
            "type" : "VEC3"
        },
        {
            "bufferView" : 33,
            "componentType" : 5126,
            "count" : 54,
            "type" : "VEC3"
        },
        {
            "bufferView" : 34,
            "componentType" : 5126,
            "count" : 54,
            "type" : "VEC2"
        },
        {
            "bufferView" : 35,
            "componentType" : 5123,
            "count" : 126,
            "type" : "SCALAR"
        },
        {
            "bufferView" : 36,
            "componentType" : 5126,
            "count" : 12,
            "max" : [
                6.170016765594482,
                1.6896133422851562,
                3.4058234691619873
            ],
            "min" : [
                3.6769776344299316,
                0.16217967867851257,
                3.4029083251953125
            ],
            "type" : "VEC3"
        },
        {
            "bufferView" : 37,
            "componentType" : 5126,
            "count" : 12,
            "type" : "VEC3"
        },
        {
            "bufferView" : 38,
            "componentType" : 5126,
            "count" : 12,
            "type" : "VEC2"
        }
    ],
    "bufferViews" : [
        {
            "buffer" : 0,
            "byteLength" : 768,
            "byteOffset" : 0
        },
        {
            "buffer" : 0,
            "byteLength" : 768,
            "byteOffset" : 768
        },
        {
            "buffer" : 0,
            "byteLength" : 512,
            "byteOffset" : 1536
        },
        {
            "buffer" : 0,
            "byteLength" : 192,
            "byteOffset" : 2048
        },
        {
            "buffer" : 0,
            "byteLength" : 48,
            "byteOffset" : 2240
        },
        {
            "buffer" : 0,
            "byteLength" : 48,
            "byteOffset" : 2288
        },
        {
            "buffer" : 0,
            "byteLength" : 32,
            "byteOffset" : 2336
        },
        {
            "buffer" : 0,
            "byteLength" : 12,
            "byteOffset" : 2368
        },
        {
            "buffer" : 0,
            "byteLength" : 1824,
            "byteOffset" : 2380
        },
        {
            "buffer" : 0,
            "byteLength" : 1824,
            "byteOffset" : 4204
        },
        {
            "buffer" : 0,
            "byteLength" : 1216,
            "byteOffset" : 6028
        },
        {
            "buffer" : 0,
            "byteLength" : 732,
            "byteOffset" : 7244
        },
        {
            "buffer" : 0,
            "byteLength" : 3096,
            "byteOffset" : 7976
        },
        {
            "buffer" : 0,
            "byteLength" : 3096,
            "byteOffset" : 11072
        },
        {
            "buffer" : 0,
            "byteLength" : 2064,
            "byteOffset" : 14168
        },
        {
            "buffer" : 0,
            "byteLength" : 1080,
            "byteOffset" : 16232
        },
        {
            "buffer" : 0,
            "byteLength" : 144,
            "byteOffset" : 17312
        },
        {
            "buffer" : 0,
            "byteLength" : 144,
            "byteOffset" : 17456
        },
        {
            "buffer" : 0,
            "byteLength" : 96,
            "byteOffset" : 17600
        },
        {
            "buffer" : 0,
            "byteLength" : 36,
            "byteOffset" : 17696
        },
        {
            "buffer" : 0,
            "byteLength" : 480,
            "byteOffset" : 17732
        },
        {
            "buffer" : 0,
            "byteLength" : 480,
            "byteOffset" : 18212
        },
        {
            "buffer" : 0,
            "byteLength" : 320,
            "byteOffset" : 18692
        },
        {
            "buffer" : 0,
            "byteLength" : 144,
            "byteOffset" : 19012
        },
        {
            "buffer" : 0,
            "byteLength" : 120,
            "byteOffset" : 19156
        },
        {
            "buffer" : 0,
            "byteLength" : 120,
            "byteOffset" : 19276
        },
        {
            "buffer" : 0,
            "byteLength" : 80,
            "byteOffset" : 19396
        },
        {
            "buffer" : 0,
            "byteLength" : 36,
            "byteOffset" : 19476
        },
        {
            "buffer" : 0,
            "byteLength" : 6828,
            "byteOffset" : 19512
        },
        {
            "buffer" : 0,
            "byteLength" : 6828,
            "byteOffset" : 26340
        },
        {
            "buffer" : 0,
            "byteLength" : 4552,
            "byteOffset" : 33168
        },
        {
            "buffer" : 0,
            "byteLength" : 1818,
            "byteOffset" : 37720
        },
        {
            "buffer" : 0,
            "byteLength" : 648,
            "byteOffset" : 39540
        },
        {
            "buffer" : 0,
            "byteLength" : 648,
            "byteOffset" : 40188
        },
        {
            "buffer" : 0,
            "byteLength" : 432,
            "byteOffset" : 40836
        },
        {
            "buffer" : 0,
            "byteLength" : 252,
            "byteOffset" : 41268
        },
        {
            "buffer" : 0,
            "byteLength" : 144,
            "byteOffset" : 41520
        },
        {
            "buffer" : 0,
            "byteLength" : 144,
            "byteOffset" : 41664
        },
        {
            "buffer" : 0,
            "byteLength" : 96,
            "byteOffset" : 41808
        }
    ],
    "samplers" : [
        {
            "magFilter" : 9729,
            "minFilter" : 9987
        }
    ],
    "buffers" : [
        {
            "byteLength" : 41904,
            "uri" : "edap-service-building_LOD01.bin"
        }
    ]
}
