{
    "asset" : {
        "extensions" : {
            "ASOBO_normal_map_convention" : {
                "tangent_space_convention" : "DirectX"
            }
        },
        "generator" : "Khronos glTF Blender I/O v1.8.19 and Asobo Studio MSFS Blender I/O v1.1.6",
        "version" : "2.0"
    },
    "extensionsUsed" : [
        "ASOBO_normal_map_convention"
    ],
    "scene" : 0,
    "scenes" : [
        {
            "name" : "Scene",
            "nodes" : [
                0,
                1,
                4,
                5,
                6
            ]
        }
    ],
    "nodes" : [
        {
            "mesh" : 0,
            "name" : "post L.001"
        },
        {
            "mesh" : 1,
            "name" : "gate L.001"
        },
        {
            "mesh" : 2,
            "name" : "sign Flugbetriebsfl\u00e4che.002"
        },
        {
            "mesh" : 3,
            "name" : "sign Flugbetriebsfl\u00e4che.003"
        },
        {
            "children" : [
                2,
                3
            ],
            "mesh" : 4,
            "name" : "post R.001"
        },
        {
            "mesh" : 5,
            "name" : "reinforced pole fastener.002",
            "scale" : [
                1,
                60.36265182495117,
                7.14201021194458
            ],
            "translation" : [
                0,
                0.803065299987793,
                -22.145200729370117
            ]
        },
        {
            "mesh" : 6,
            "name" : "gate R.001"
        }
    ],
    "materials" : [
        {
            "name" : "EDAP COL paint white",
            "pbrMetallicRoughness" : {
                "baseColorFactor" : [
                    0.5204225778579712,
                    0.5204225778579712,
                    0.5204225778579712,
                    1
                ],
                "metallicFactor" : 0,
                "roughnessFactor" : 0.5
            }
        },
        {
            "name" : "EDAP COL paint blue",
            "pbrMetallicRoughness" : {
                "baseColorFactor" : [
                    0.045185983180999756,
                    0.127437561750412,
                    0.23455052077770233,
                    1
                ],
                "metallicFactor" : 0.5,
                "roughnessFactor" : 0.5
            }
        },
        {
            "alphaCutoff" : 0.5,
            "alphaMode" : "MASK",
            "doubleSided" : true,
            "name" : "EDAP PBR metal fence rectangle",
            "normalTexture" : {
                "index" : 0
            },
            "occlusionTexture" : {
                "index" : 1
            },
            "pbrMetallicRoughness" : {
                "baseColorTexture" : {
                    "index" : 2
                },
                "metallicRoughnessTexture" : {
                    "index" : 1
                }
            }
        }
    ],
    "meshes" : [
        {
            "name" : "Cube.004",
            "primitives" : [
                {
                    "attributes" : {
                        "POSITION" : 0,
                        "NORMAL" : 1,
                        "TEXCOORD_0" : 2
                    },
                    "indices" : 3,
                    "material" : 0
                },
                {
                    "attributes" : {
                        "POSITION" : 4,
                        "NORMAL" : 5,
                        "TEXCOORD_0" : 6
                    },
                    "indices" : 7,
                    "material" : 1
                }
            ]
        },
        {
            "name" : "Cylinder.007",
            "primitives" : [
                {
                    "attributes" : {
                        "POSITION" : 8,
                        "NORMAL" : 9,
                        "TEXCOORD_0" : 10
                    },
                    "indices" : 11,
                    "material" : 1
                },
                {
                    "attributes" : {
                        "POSITION" : 12,
                        "NORMAL" : 13,
                        "TEXCOORD_0" : 14
                    },
                    "indices" : 15,
                    "material" : 2
                }
            ]
        },
        {
            "name" : "Plane.004",
            "primitives" : [
                {
                    "attributes" : {
                        "POSITION" : 16,
                        "NORMAL" : 17,
                        "TEXCOORD_0" : 18
                    },
                    "indices" : 19,
                    "material" : 0
                }
            ]
        },
        {
            "name" : "Plane.005",
            "primitives" : [
                {
                    "attributes" : {
                        "POSITION" : 20,
                        "NORMAL" : 21,
                        "TEXCOORD_0" : 22
                    },
                    "indices" : 19,
                    "material" : 0
                }
            ]
        },
        {
            "name" : "Cube.005",
            "primitives" : [
                {
                    "attributes" : {
                        "POSITION" : 23,
                        "NORMAL" : 24,
                        "TEXCOORD_0" : 25
                    },
                    "indices" : 26,
                    "material" : 0
                },
                {
                    "attributes" : {
                        "POSITION" : 27,
                        "NORMAL" : 28,
                        "TEXCOORD_0" : 29
                    },
                    "indices" : 7,
                    "material" : 1
                }
            ]
        },
        {
            "name" : "Cube.006",
            "primitives" : [
                {
                    "attributes" : {
                        "POSITION" : 30,
                        "NORMAL" : 31,
                        "TEXCOORD_0" : 32
                    },
                    "indices" : 33,
                    "material" : 0
                }
            ]
        },
        {
            "name" : "Cylinder.019",
            "primitives" : [
                {
                    "attributes" : {
                        "POSITION" : 34,
                        "NORMAL" : 35,
                        "TEXCOORD_0" : 36
                    },
                    "indices" : 37,
                    "material" : 1
                },
                {
                    "attributes" : {
                        "POSITION" : 38,
                        "NORMAL" : 39,
                        "TEXCOORD_0" : 40
                    },
                    "indices" : 15,
                    "material" : 2
                }
            ]
        }
    ],
    "textures" : [
        {
            "sampler" : 0,
            "source" : 0
        },
        {
            "sampler" : 0,
            "source" : 1
        },
        {
            "sampler" : 0,
            "source" : 2
        }
    ],
    "images" : [
        {
            "mimeType" : "image/png",
            "name" : "FenceRectangle_Aged_1K_normal_flipped",
            "uri" : "FenceRectangle_Aged_1K_normal_flipped.png"
        },
        {
            "mimeType" : "image/png",
            "name" : "FenceRectangle_Aged_1K_composite",
            "uri" : "FenceRectangle_Aged_1K_composite.png"
        },
        {
            "mimeType" : "image/png",
            "name" : "FenceRectangle_Aged_1K_rgba",
            "uri" : "FenceRectangle_Aged_1K_rgba.png"
        }
    ],
    "accessors" : [
        {
            "bufferView" : 0,
            "componentType" : 5126,
            "count" : 80,
            "max" : [
                0.22101376950740814,
                2.2317328453063965,
                0.22101376950740814
            ],
            "min" : [
                -0.22101376950740814,
                -0.10000002384185791,
                -0.22101376950740814
            ],
            "type" : "VEC3"
        },
        {
            "bufferView" : 1,
            "componentType" : 5126,
            "count" : 80,
            "type" : "VEC3"
        },
        {
            "bufferView" : 2,
            "componentType" : 5126,
            "count" : 80,
            "type" : "VEC2"
        },
        {
            "bufferView" : 3,
            "componentType" : 5123,
            "count" : 120,
            "type" : "SCALAR"
        },
        {
            "bufferView" : 4,
            "componentType" : 5126,
            "count" : 32,
            "max" : [
                0.20000000298023224,
                1.5499999523162842,
                0.20000000298023224
            ],
            "min" : [
                -0.20000000298023224,
                -0.10000002384185791,
                -0.20000000298023224
            ],
            "type" : "VEC3"
        },
        {
            "bufferView" : 5,
            "componentType" : 5126,
            "count" : 32,
            "type" : "VEC3"
        },
        {
            "bufferView" : 6,
            "componentType" : 5126,
            "count" : 32,
            "type" : "VEC2"
        },
        {
            "bufferView" : 7,
            "componentType" : 5123,
            "count" : 48,
            "type" : "SCALAR"
        },
        {
            "bufferView" : 8,
            "componentType" : 5126,
            "count" : 578,
            "max" : [
                -0.24049100279808044,
                1.80967116355896,
                10.266036987304688
            ],
            "min" : [
                -0.3096102178096771,
                0.009671211242675781,
                0.17840087413787842
            ],
            "type" : "VEC3"
        },
        {
            "bufferView" : 9,
            "componentType" : 5126,
            "count" : 578,
            "type" : "VEC3"
        },
        {
            "bufferView" : 10,
            "componentType" : 5126,
            "count" : 578,
            "type" : "VEC2"
        },
        {
            "bufferView" : 11,
            "componentType" : 5123,
            "count" : 1356,
            "type" : "SCALAR"
        },
        {
            "bufferView" : 12,
            "componentType" : 5126,
            "count" : 20,
            "max" : [
                -0.27507656812667847,
                1.5957059860229492,
                10.22286605834961
            ],
            "min" : [
                -0.27507656812667847,
                0.528023898601532,
                0.21995902061462402
            ],
            "type" : "VEC3"
        },
        {
            "bufferView" : 13,
            "componentType" : 5126,
            "count" : 20,
            "type" : "VEC3"
        },
        {
            "bufferView" : 14,
            "componentType" : 5126,
            "count" : 20,
            "type" : "VEC2"
        },
        {
            "bufferView" : 15,
            "componentType" : 5123,
            "count" : 30,
            "type" : "SCALAR"
        },
        {
            "bufferView" : 16,
            "componentType" : 5126,
            "count" : 4,
            "max" : [
                0.02241181954741478,
                1.3973331451416016,
                -20.942384719848633
            ],
            "min" : [
                0.022411689162254333,
                1.073073148727417,
                -21.342239379882812
            ],
            "type" : "VEC3"
        },
        {
            "bufferView" : 17,
            "componentType" : 5126,
            "count" : 4,
            "type" : "VEC3"
        },
        {
            "bufferView" : 18,
            "componentType" : 5126,
            "count" : 4,
            "type" : "VEC2"
        },
        {
            "bufferView" : 19,
            "componentType" : 5123,
            "count" : 6,
            "type" : "SCALAR"
        },
        {
            "bufferView" : 20,
            "componentType" : 5126,
            "count" : 4,
            "max" : [
                0.02035260759294033,
                1.3973331451416016,
                -20.9423828125
            ],
            "min" : [
                0.020352348685264587,
                1.073073148727417,
                -21.34223747253418
            ],
            "type" : "VEC3"
        },
        {
            "bufferView" : 21,
            "componentType" : 5126,
            "count" : 4,
            "type" : "VEC3"
        },
        {
            "bufferView" : 22,
            "componentType" : 5126,
            "count" : 4,
            "type" : "VEC2"
        },
        {
            "bufferView" : 23,
            "componentType" : 5126,
            "count" : 76,
            "max" : [
                0.22101376950740814,
                2.2317328453063965,
                -19.779747009277344
            ],
            "min" : [
                -0.22101376950740814,
                0.44999992847442627,
                -20.22177505493164
            ],
            "type" : "VEC3"
        },
        {
            "bufferView" : 24,
            "componentType" : 5126,
            "count" : 76,
            "type" : "VEC3"
        },
        {
            "bufferView" : 25,
            "componentType" : 5126,
            "count" : 76,
            "type" : "VEC2"
        },
        {
            "bufferView" : 26,
            "componentType" : 5123,
            "count" : 114,
            "type" : "SCALAR"
        },
        {
            "bufferView" : 27,
            "componentType" : 5126,
            "count" : 32,
            "max" : [
                0.20000000298023224,
                1.5499999523162842,
                -19.80076026916504
            ],
            "min" : [
                -0.20000000298023224,
                -0.10000002384185791,
                -20.200761795043945
            ],
            "type" : "VEC3"
        },
        {
            "bufferView" : 28,
            "componentType" : 5126,
            "count" : 32,
            "type" : "VEC3"
        },
        {
            "bufferView" : 29,
            "componentType" : 5126,
            "count" : 32,
            "type" : "VEC2"
        },
        {
            "bufferView" : 30,
            "componentType" : 5126,
            "count" : 20,
            "max" : [
                0.014999999664723873,
                0.014999999664723873,
                0.014999999664723873
            ],
            "min" : [
                -0.014999999664723873,
                -0.014999999664723873,
                -0.014999999664723873
            ],
            "type" : "VEC3"
        },
        {
            "bufferView" : 31,
            "componentType" : 5126,
            "count" : 20,
            "type" : "VEC3"
        },
        {
            "bufferView" : 32,
            "componentType" : 5126,
            "count" : 20,
            "type" : "VEC2"
        },
        {
            "bufferView" : 33,
            "componentType" : 5123,
            "count" : 30,
            "type" : "SCALAR"
        },
        {
            "bufferView" : 34,
            "componentType" : 5126,
            "count" : 657,
            "max" : [
                -0.24048811197280884,
                1.8096716403961182,
                -20.179731369018555
            ],
            "min" : [
                -0.3107053339481354,
                0.009671211242675781,
                -30.26547622680664
            ],
            "type" : "VEC3"
        },
        {
            "bufferView" : 35,
            "componentType" : 5126,
            "count" : 657,
            "type" : "VEC3"
        },
        {
            "bufferView" : 36,
            "componentType" : 5126,
            "count" : 657,
            "type" : "VEC2"
        },
        {
            "bufferView" : 37,
            "componentType" : 5123,
            "count" : 1356,
            "type" : "SCALAR"
        },
        {
            "bufferView" : 38,
            "componentType" : 5126,
            "count" : 20,
            "max" : [
                -0.27611976861953735,
                1.5957059860229492,
                -20.221288681030273
            ],
            "min" : [
                -0.2761199474334717,
                0.5280239582061768,
                -30.224193572998047
            ],
            "type" : "VEC3"
        },
        {
            "bufferView" : 39,
            "componentType" : 5126,
            "count" : 20,
            "type" : "VEC3"
        },
        {
            "bufferView" : 40,
            "componentType" : 5126,
            "count" : 20,
            "type" : "VEC2"
        }
    ],
    "bufferViews" : [
        {
            "buffer" : 0,
            "byteLength" : 960,
            "byteOffset" : 0
        },
        {
            "buffer" : 0,
            "byteLength" : 960,
            "byteOffset" : 960
        },
        {
            "buffer" : 0,
            "byteLength" : 640,
            "byteOffset" : 1920
        },
        {
            "buffer" : 0,
            "byteLength" : 240,
            "byteOffset" : 2560
        },
        {
            "buffer" : 0,
            "byteLength" : 384,
            "byteOffset" : 2800
        },
        {
            "buffer" : 0,
            "byteLength" : 384,
            "byteOffset" : 3184
        },
        {
            "buffer" : 0,
            "byteLength" : 256,
            "byteOffset" : 3568
        },
        {
            "buffer" : 0,
            "byteLength" : 96,
            "byteOffset" : 3824
        },
        {
            "buffer" : 0,
            "byteLength" : 6936,
            "byteOffset" : 3920
        },
        {
            "buffer" : 0,
            "byteLength" : 6936,
            "byteOffset" : 10856
        },
        {
            "buffer" : 0,
            "byteLength" : 4624,
            "byteOffset" : 17792
        },
        {
            "buffer" : 0,
            "byteLength" : 2712,
            "byteOffset" : 22416
        },
        {
            "buffer" : 0,
            "byteLength" : 240,
            "byteOffset" : 25128
        },
        {
            "buffer" : 0,
            "byteLength" : 240,
            "byteOffset" : 25368
        },
        {
            "buffer" : 0,
            "byteLength" : 160,
            "byteOffset" : 25608
        },
        {
            "buffer" : 0,
            "byteLength" : 60,
            "byteOffset" : 25768
        },
        {
            "buffer" : 0,
            "byteLength" : 48,
            "byteOffset" : 25828
        },
        {
            "buffer" : 0,
            "byteLength" : 48,
            "byteOffset" : 25876
        },
        {
            "buffer" : 0,
            "byteLength" : 32,
            "byteOffset" : 25924
        },
        {
            "buffer" : 0,
            "byteLength" : 12,
            "byteOffset" : 25956
        },
        {
            "buffer" : 0,
            "byteLength" : 48,
            "byteOffset" : 25968
        },
        {
            "buffer" : 0,
            "byteLength" : 48,
            "byteOffset" : 26016
        },
        {
            "buffer" : 0,
            "byteLength" : 32,
            "byteOffset" : 26064
        },
        {
            "buffer" : 0,
            "byteLength" : 912,
            "byteOffset" : 26096
        },
        {
            "buffer" : 0,
            "byteLength" : 912,
            "byteOffset" : 27008
        },
        {
            "buffer" : 0,
            "byteLength" : 608,
            "byteOffset" : 27920
        },
        {
            "buffer" : 0,
            "byteLength" : 228,
            "byteOffset" : 28528
        },
        {
            "buffer" : 0,
            "byteLength" : 384,
            "byteOffset" : 28756
        },
        {
            "buffer" : 0,
            "byteLength" : 384,
            "byteOffset" : 29140
        },
        {
            "buffer" : 0,
            "byteLength" : 256,
            "byteOffset" : 29524
        },
        {
            "buffer" : 0,
            "byteLength" : 240,
            "byteOffset" : 29780
        },
        {
            "buffer" : 0,
            "byteLength" : 240,
            "byteOffset" : 30020
        },
        {
            "buffer" : 0,
            "byteLength" : 160,
            "byteOffset" : 30260
        },
        {
            "buffer" : 0,
            "byteLength" : 60,
            "byteOffset" : 30420
        },
        {
            "buffer" : 0,
            "byteLength" : 7884,
            "byteOffset" : 30480
        },
        {
            "buffer" : 0,
            "byteLength" : 7884,
            "byteOffset" : 38364
        },
        {
            "buffer" : 0,
            "byteLength" : 5256,
            "byteOffset" : 46248
        },
        {
            "buffer" : 0,
            "byteLength" : 2712,
            "byteOffset" : 51504
        },
        {
            "buffer" : 0,
            "byteLength" : 240,
            "byteOffset" : 54216
        },
        {
            "buffer" : 0,
            "byteLength" : 240,
            "byteOffset" : 54456
        },
        {
            "buffer" : 0,
            "byteLength" : 160,
            "byteOffset" : 54696
        }
    ],
    "samplers" : [
        {
            "magFilter" : 9729,
            "minFilter" : 9987
        }
    ],
    "buffers" : [
        {
            "byteLength" : 54856,
            "uri" : "edap-gate-inner_LOD01.bin"
        }
    ]
}
