{
    "asset" : {
        "extensions" : {
            "ASOBO_normal_map_convention" : {
                "tangent_space_convention" : "DirectX"
            }
        },
        "generator" : "Khronos glTF Blender I/O v1.8.19 and Asobo Studio MSFS Blender I/O v1.1.6",
        "version" : "2.0"
    },
    "extensionsUsed" : [
        "ASOBO_normal_map_convention"
    ],
    "scene" : 0,
    "scenes" : [
        {
            "name" : "Scene",
            "nodes" : [
                0
            ]
        }
    ],
    "nodes" : [
        {
            "mesh" : 0,
            "name" : "fence"
        }
    ],
    "materials" : [
        {
            "name" : "EDAP PBR paint blue rusted",
            "normalTexture" : {
                "index" : 0
            },
            "pbrMetallicRoughness" : {
                "baseColorFactor" : [
                    0.9999988079071045,
                    0.9999989867210388,
                    1,
                    1
                ],
                "baseColorTexture" : {
                    "index" : 1
                },
                "metallicFactor" : 0,
                "metallicRoughnessTexture" : {
                    "index" : 2
                },
                "roughnessFactor" : 0.5
            }
        },
        {
            "alphaCutoff" : 0.5,
            "alphaMode" : "MASK",
            "doubleSided" : true,
            "name" : "EDAP PBR metal wire mesh fence",
            "normalTexture" : {
                "index" : 3
            },
            "occlusionTexture" : {
                "index" : 4
            },
            "pbrMetallicRoughness" : {
                "baseColorTexture" : {
                    "index" : 5
                },
                "metallicRoughnessTexture" : {
                    "index" : 4
                }
            }
        }
    ],
    "meshes" : [
        {
            "name" : "Cylinder",
            "primitives" : [
                {
                    "attributes" : {
                        "POSITION" : 0,
                        "NORMAL" : 1,
                        "TEXCOORD_0" : 2
                    },
                    "indices" : 3,
                    "material" : 0
                },
                {
                    "attributes" : {
                        "POSITION" : 4,
                        "NORMAL" : 5,
                        "TEXCOORD_0" : 6
                    },
                    "indices" : 7,
                    "material" : 1
                }
            ]
        }
    ],
    "textures" : [
        {
            "sampler" : 0,
            "source" : 0
        },
        {
            "sampler" : 0,
            "source" : 1
        },
        {
            "sampler" : 0,
            "source" : 2
        },
        {
            "sampler" : 0,
            "source" : 3
        },
        {
            "sampler" : 0,
            "source" : 4
        },
        {
            "sampler" : 0,
            "source" : 5
        }
    ],
    "images" : [
        {
            "mimeType" : "image/png",
            "name" : "PaintRusted3_1K_normal_flipped",
            "uri" : "PaintRusted3_1K_normal_flipped.png"
        },
        {
            "mimeType" : "image/png",
            "name" : "PaintRusted3_1K_albedo.tif",
            "uri" : "PaintRusted3_1K_albedo_tif.png"
        },
        {
            "mimeType" : "image/png",
            "name" : "PaintRusted3_1K_composite",
            "uri" : "PaintRusted3_1K_composite.png"
        },
        {
            "mimeType" : "image/png",
            "name" : "Metal_WireFence_LightRust_1K_normal_flipped",
            "uri" : "Metal_WireFence_LightRust_1K_normal_flipped.png"
        },
        {
            "mimeType" : "image/png",
            "name" : "Metal_WireFence_LightRust_1K_composite",
            "uri" : "Metal_WireFence_LightRust_1K_composite.png"
        },
        {
            "mimeType" : "image/png",
            "name" : "Metal_WireFence_LightRust_1K_rgba",
            "uri" : "Metal_WireFence_LightRust_1K_rgba.png"
        }
    ],
    "accessors" : [
        {
            "bufferView" : 0,
            "componentType" : 5126,
            "count" : 36,
            "max" : [
                0.03013595938682556,
                1.600000023841858,
                0.03215152025222778
            ],
            "min" : [
                -0.03013595938682556,
                -0.10000002384185791,
                -0.03163021802902222
            ],
            "type" : "VEC3"
        },
        {
            "bufferView" : 1,
            "componentType" : 5126,
            "count" : 36,
            "type" : "VEC3"
        },
        {
            "bufferView" : 2,
            "componentType" : 5126,
            "count" : 36,
            "type" : "VEC2"
        },
        {
            "bufferView" : 3,
            "componentType" : 5123,
            "count" : 84,
            "type" : "SCALAR"
        },
        {
            "bufferView" : 4,
            "componentType" : 5126,
            "count" : 4,
            "max" : [
                0,
                1.552879810333252,
                -0.0031067728996276855
            ],
            "min" : [
                0,
                0.02522975206375122,
                -2.5032012462615967
            ],
            "type" : "VEC3"
        },
        {
            "bufferView" : 5,
            "componentType" : 5126,
            "count" : 4,
            "type" : "VEC3"
        },
        {
            "bufferView" : 6,
            "componentType" : 5126,
            "count" : 4,
            "type" : "VEC2"
        },
        {
            "bufferView" : 7,
            "componentType" : 5123,
            "count" : 6,
            "type" : "SCALAR"
        }
    ],
    "bufferViews" : [
        {
            "buffer" : 0,
            "byteLength" : 432,
            "byteOffset" : 0
        },
        {
            "buffer" : 0,
            "byteLength" : 432,
            "byteOffset" : 432
        },
        {
            "buffer" : 0,
            "byteLength" : 288,
            "byteOffset" : 864
        },
        {
            "buffer" : 0,
            "byteLength" : 168,
            "byteOffset" : 1152
        },
        {
            "buffer" : 0,
            "byteLength" : 48,
            "byteOffset" : 1320
        },
        {
            "buffer" : 0,
            "byteLength" : 48,
            "byteOffset" : 1368
        },
        {
            "buffer" : 0,
            "byteLength" : 32,
            "byteOffset" : 1416
        },
        {
            "buffer" : 0,
            "byteLength" : 12,
            "byteOffset" : 1448
        }
    ],
    "samplers" : [
        {
            "magFilter" : 9729,
            "minFilter" : 9987
        }
    ],
    "buffers" : [
        {
            "byteLength" : 1460,
            "uri" : "edap-fence_LOD00.bin"
        }
    ]
}
