{
    "asset" : {
        "extensions" : {
            "ASOBO_normal_map_convention" : {
                "tangent_space_convention" : "DirectX"
            }
        },
        "generator" : "Khronos glTF Blender I/O v1.8.19 and Asobo Studio MSFS Blender I/O v1.1.6",
        "version" : "2.0"
    },
    "extensionsUsed" : [
        "ASOBO_normal_map_convention"
    ],
    "scene" : 0,
    "scenes" : [
        {
            "name" : "Scene",
            "nodes" : [
                2,
                3,
                4,
                5
            ]
        }
    ],
    "nodes" : [
        {
            "mesh" : 0,
            "name" : "side frame.006"
        },
        {
            "mesh" : 1,
            "name" : "side frame.007"
        },
        {
            "children" : [
                0,
                1
            ],
            "mesh" : 2,
            "name" : "platform.003",
            "scale" : [
                1.2215970754623413,
                1.2215970754623413,
                1.2215970754623413
            ]
        },
        {
            "mesh" : 3,
            "name" : "rear frame.003",
            "scale" : [
                1.2215970754623413,
                1.2215970754623413,
                1.2215970754623413
            ]
        },
        {
            "mesh" : 4,
            "name" : "front frame.003",
            "scale" : [
                1.2215970754623413,
                1.2215970754623413,
                1.2215970754623413
            ]
        },
        {
            "mesh" : 5,
            "name" : "shackle.003",
            "scale" : [
                1.2215970754623413,
                1.2215970754623413,
                1.2215970754623413
            ]
        }
    ],
    "materials" : [
        {
            "name" : "EDAP COL red metal with bolt",
            "pbrMetallicRoughness" : {
                "baseColorFactor" : [
                    0.21651916205883026,
                    0.0735299289226532,
                    0.06025175750255585,
                    1
                ]
            }
        },
        {
            "name" : "EDAP COL planks helicopter dolly",
            "pbrMetallicRoughness" : {
                "baseColorFactor" : [
                    1,
                    0.7297548055648804,
                    0.46776774525642395,
                    1
                ]
            }
        },
        {
            "name" : "EDAP COL paint dark blue",
            "pbrMetallicRoughness" : {
                "baseColorFactor" : [
                    0,
                    0.10461632907390594,
                    0.4019775986671448,
                    1
                ],
                "metallicFactor" : 0,
                "roughnessFactor" : 0.8500000238418579
            }
        },
        {
            "name" : "EDAP COL paint yellow",
            "pbrMetallicRoughness" : {
                "baseColorFactor" : [
                    0.5629622340202332,
                    0.4811890721321106,
                    0.029941033571958542,
                    1
                ],
                "metallicFactor" : 0,
                "roughnessFactor" : 0.40000003576278687
            }
        }
    ],
    "meshes" : [
        {
            "name" : "Cube.040",
            "primitives" : [
                {
                    "attributes" : {
                        "POSITION" : 0,
                        "NORMAL" : 1,
                        "TEXCOORD_0" : 2
                    },
                    "indices" : 3,
                    "material" : 0
                }
            ]
        },
        {
            "name" : "Cube.041",
            "primitives" : [
                {
                    "attributes" : {
                        "POSITION" : 4,
                        "NORMAL" : 5,
                        "TEXCOORD_0" : 6
                    },
                    "indices" : 7,
                    "material" : 0
                }
            ]
        },
        {
            "name" : "Cube.039",
            "primitives" : [
                {
                    "attributes" : {
                        "POSITION" : 8,
                        "NORMAL" : 9,
                        "TEXCOORD_0" : 10
                    },
                    "indices" : 11,
                    "material" : 1
                },
                {
                    "attributes" : {
                        "POSITION" : 12,
                        "NORMAL" : 13,
                        "TEXCOORD_0" : 14
                    },
                    "indices" : 15,
                    "material" : 2
                }
            ]
        },
        {
            "name" : "Cube.046",
            "primitives" : [
                {
                    "attributes" : {
                        "POSITION" : 16,
                        "NORMAL" : 17,
                        "TEXCOORD_0" : 18
                    },
                    "indices" : 19,
                    "material" : 3
                }
            ]
        },
        {
            "name" : "Cube.047",
            "primitives" : [
                {
                    "attributes" : {
                        "POSITION" : 20,
                        "NORMAL" : 21,
                        "TEXCOORD_0" : 22
                    },
                    "indices" : 23,
                    "material" : 3
                }
            ]
        },
        {
            "name" : "Cube.048",
            "primitives" : [
                {
                    "attributes" : {
                        "POSITION" : 24,
                        "NORMAL" : 25,
                        "TEXCOORD_0" : 26
                    },
                    "indices" : 27,
                    "material" : 3
                }
            ]
        }
    ],
    "accessors" : [
        {
            "bufferView" : 0,
            "componentType" : 5126,
            "count" : 20,
            "max" : [
                1.4810512065887451,
                0.1622115820646286,
                1.0185186862945557
            ],
            "min" : [
                -1.4913607835769653,
                0.0700867623090744,
                1.0045413970947266
            ],
            "type" : "VEC3"
        },
        {
            "bufferView" : 1,
            "componentType" : 5126,
            "count" : 20,
            "type" : "VEC3"
        },
        {
            "bufferView" : 2,
            "componentType" : 5126,
            "count" : 20,
            "type" : "VEC2"
        },
        {
            "bufferView" : 3,
            "componentType" : 5123,
            "count" : 30,
            "type" : "SCALAR"
        },
        {
            "bufferView" : 4,
            "componentType" : 5126,
            "count" : 20,
            "max" : [
                1.4810512065887451,
                0.1622115820646286,
                -1.0015785694122314
            ],
            "min" : [
                -1.49192214012146,
                0.0700867623090744,
                -1.015556812286377
            ],
            "type" : "VEC3"
        },
        {
            "bufferView" : 5,
            "componentType" : 5126,
            "count" : 20,
            "type" : "VEC3"
        },
        {
            "bufferView" : 6,
            "componentType" : 5126,
            "count" : 20,
            "type" : "VEC2"
        },
        {
            "bufferView" : 7,
            "componentType" : 5123,
            "count" : 30,
            "type" : "SCALAR"
        },
        {
            "bufferView" : 8,
            "componentType" : 5126,
            "count" : 87,
            "max" : [
                1.495033621788025,
                0.17358724772930145,
                1
            ],
            "min" : [
                -1.495033621788025,
                0.13300174474716187,
                -1
            ],
            "type" : "VEC3"
        },
        {
            "bufferView" : 9,
            "componentType" : 5126,
            "count" : 87,
            "type" : "VEC3"
        },
        {
            "bufferView" : 10,
            "componentType" : 5126,
            "count" : 87,
            "type" : "VEC2"
        },
        {
            "bufferView" : 11,
            "componentType" : 5123,
            "count" : 174,
            "type" : "SCALAR"
        },
        {
            "bufferView" : 12,
            "componentType" : 5126,
            "count" : 20,
            "max" : [
                -0.5173238515853882,
                0.17358724772930145,
                -0.5221354961395264
            ],
            "min" : [
                -1.495033621788025,
                0.13928134739398956,
                -1
            ],
            "type" : "VEC3"
        },
        {
            "bufferView" : 13,
            "componentType" : 5126,
            "count" : 20,
            "type" : "VEC3"
        },
        {
            "bufferView" : 14,
            "componentType" : 5126,
            "count" : 20,
            "type" : "VEC2"
        },
        {
            "bufferView" : 15,
            "componentType" : 5123,
            "count" : 42,
            "type" : "SCALAR"
        },
        {
            "bufferView" : 16,
            "componentType" : 5126,
            "count" : 16,
            "max" : [
                1.5113418102264404,
                0.14852292835712433,
                0.935131311416626
            ],
            "min" : [
                1.496574878692627,
                0.07934293150901794,
                -0.935131311416626
            ],
            "type" : "VEC3"
        },
        {
            "bufferView" : 17,
            "componentType" : 5126,
            "count" : 16,
            "type" : "VEC3"
        },
        {
            "bufferView" : 18,
            "componentType" : 5126,
            "count" : 16,
            "type" : "VEC2"
        },
        {
            "bufferView" : 19,
            "componentType" : 5123,
            "count" : 24,
            "type" : "SCALAR"
        },
        {
            "bufferView" : 20,
            "componentType" : 5126,
            "count" : 196,
            "max" : [
                -1.4862173795700073,
                0.14678466320037842,
                1.028104543685913
            ],
            "min" : [
                -1.5351284742355347,
                0.0676414966583252,
                -1.0247973203659058
            ],
            "type" : "VEC3"
        },
        {
            "bufferView" : 21,
            "componentType" : 5126,
            "count" : 196,
            "type" : "VEC3"
        },
        {
            "bufferView" : 22,
            "componentType" : 5126,
            "count" : 196,
            "type" : "VEC2"
        },
        {
            "bufferView" : 23,
            "componentType" : 5123,
            "count" : 372,
            "type" : "SCALAR"
        },
        {
            "bufferView" : 24,
            "componentType" : 5126,
            "count" : 148,
            "max" : [
                -1.532646656036377,
                0.11278506368398666,
                0.2851962745189667
            ],
            "min" : [
                -2.3883070945739746,
                0.03712637722492218,
                -0.28596755862236023
            ],
            "type" : "VEC3"
        },
        {
            "bufferView" : 25,
            "componentType" : 5126,
            "count" : 148,
            "type" : "VEC3"
        },
        {
            "bufferView" : 26,
            "componentType" : 5126,
            "count" : 148,
            "type" : "VEC2"
        },
        {
            "bufferView" : 27,
            "componentType" : 5123,
            "count" : 234,
            "type" : "SCALAR"
        }
    ],
    "bufferViews" : [
        {
            "buffer" : 0,
            "byteLength" : 240,
            "byteOffset" : 0
        },
        {
            "buffer" : 0,
            "byteLength" : 240,
            "byteOffset" : 240
        },
        {
            "buffer" : 0,
            "byteLength" : 160,
            "byteOffset" : 480
        },
        {
            "buffer" : 0,
            "byteLength" : 60,
            "byteOffset" : 640
        },
        {
            "buffer" : 0,
            "byteLength" : 240,
            "byteOffset" : 700
        },
        {
            "buffer" : 0,
            "byteLength" : 240,
            "byteOffset" : 940
        },
        {
            "buffer" : 0,
            "byteLength" : 160,
            "byteOffset" : 1180
        },
        {
            "buffer" : 0,
            "byteLength" : 60,
            "byteOffset" : 1340
        },
        {
            "buffer" : 0,
            "byteLength" : 1044,
            "byteOffset" : 1400
        },
        {
            "buffer" : 0,
            "byteLength" : 1044,
            "byteOffset" : 2444
        },
        {
            "buffer" : 0,
            "byteLength" : 696,
            "byteOffset" : 3488
        },
        {
            "buffer" : 0,
            "byteLength" : 348,
            "byteOffset" : 4184
        },
        {
            "buffer" : 0,
            "byteLength" : 240,
            "byteOffset" : 4532
        },
        {
            "buffer" : 0,
            "byteLength" : 240,
            "byteOffset" : 4772
        },
        {
            "buffer" : 0,
            "byteLength" : 160,
            "byteOffset" : 5012
        },
        {
            "buffer" : 0,
            "byteLength" : 84,
            "byteOffset" : 5172
        },
        {
            "buffer" : 0,
            "byteLength" : 192,
            "byteOffset" : 5256
        },
        {
            "buffer" : 0,
            "byteLength" : 192,
            "byteOffset" : 5448
        },
        {
            "buffer" : 0,
            "byteLength" : 128,
            "byteOffset" : 5640
        },
        {
            "buffer" : 0,
            "byteLength" : 48,
            "byteOffset" : 5768
        },
        {
            "buffer" : 0,
            "byteLength" : 2352,
            "byteOffset" : 5816
        },
        {
            "buffer" : 0,
            "byteLength" : 2352,
            "byteOffset" : 8168
        },
        {
            "buffer" : 0,
            "byteLength" : 1568,
            "byteOffset" : 10520
        },
        {
            "buffer" : 0,
            "byteLength" : 744,
            "byteOffset" : 12088
        },
        {
            "buffer" : 0,
            "byteLength" : 1776,
            "byteOffset" : 12832
        },
        {
            "buffer" : 0,
            "byteLength" : 1776,
            "byteOffset" : 14608
        },
        {
            "buffer" : 0,
            "byteLength" : 1184,
            "byteOffset" : 16384
        },
        {
            "buffer" : 0,
            "byteLength" : 468,
            "byteOffset" : 17568
        }
    ],
    "buffers" : [
        {
            "byteLength" : 18036,
            "uri" : "edap-helicopter-dolly_LOD03.bin"
        }
    ]
}
