{
    "asset" : {
        "extensions" : {
            "ASOBO_normal_map_convention" : {
                "tangent_space_convention" : "DirectX"
            }
        },
        "generator" : "Khronos glTF Blender I/O v1.8.19 and Asobo Studio MSFS Blender I/O v1.1.6",
        "version" : "2.0"
    },
    "extensionsUsed" : [
        "ASOBO_normal_map_convention"
    ],
    "scene" : 0,
    "scenes" : [
        {
            "name" : "Scene",
            "nodes" : [
                4,
                5,
                6,
                7,
                8,
                9
            ]
        }
    ],
    "nodes" : [
        {
            "mesh" : 0,
            "name" : "side frame.004"
        },
        {
            "mesh" : 1,
            "name" : "side frame.005"
        },
        {
            "mesh" : 2,
            "name" : "wheel well rear.004"
        },
        {
            "mesh" : 3,
            "name" : "wheel well rear.005"
        },
        {
            "children" : [
                0,
                1,
                2,
                3
            ],
            "mesh" : 4,
            "name" : "platform.002",
            "scale" : [
                1.2215970754623413,
                1.2215970754623413,
                1.2215970754623413
            ]
        },
        {
            "mesh" : 5,
            "name" : "wheel well front.004",
            "scale" : [
                1.2215970754623413,
                1.2215970754623413,
                1.2215970754623413
            ]
        },
        {
            "mesh" : 6,
            "name" : "wheel well front.005",
            "scale" : [
                1.2215970754623413,
                1.2215970754623413,
                1.2215970754623413
            ]
        },
        {
            "mesh" : 7,
            "name" : "rear frame.002",
            "scale" : [
                1.2215970754623413,
                1.2215970754623413,
                1.2215970754623413
            ]
        },
        {
            "mesh" : 8,
            "name" : "front frame.002",
            "scale" : [
                1.2215970754623413,
                1.2215970754623413,
                1.2215970754623413
            ]
        },
        {
            "mesh" : 9,
            "name" : "shackle.002",
            "scale" : [
                1.2215970754623413,
                1.2215970754623413,
                1.2215970754623413
            ]
        }
    ],
    "materials" : [
        {
            "name" : "EDAP COL red metal with bolt",
            "pbrMetallicRoughness" : {
                "baseColorFactor" : [
                    0.21651916205883026,
                    0.0735299289226532,
                    0.06025175750255585,
                    1
                ]
            }
        },
        {
            "name" : "EDAP COL paint yellow",
            "pbrMetallicRoughness" : {
                "baseColorFactor" : [
                    0.5629622340202332,
                    0.4811890721321106,
                    0.029941033571958542,
                    1
                ],
                "metallicFactor" : 0,
                "roughnessFactor" : 0.40000003576278687
            }
        },
        {
            "name" : "EDAP PBR planks helicopter dolly",
            "normalTexture" : {
                "index" : 0
            },
            "occlusionTexture" : {
                "index" : 1
            },
            "pbrMetallicRoughness" : {
                "baseColorTexture" : {
                    "index" : 2
                },
                "metallicRoughnessTexture" : {
                    "index" : 1
                }
            }
        },
        {
            "name" : "EDAP COL paint dark blue",
            "pbrMetallicRoughness" : {
                "baseColorFactor" : [
                    0,
                    0.10461632907390594,
                    0.4019775986671448,
                    1
                ],
                "metallicFactor" : 0,
                "roughnessFactor" : 0.8500000238418579
            }
        }
    ],
    "meshes" : [
        {
            "name" : "Cube.027",
            "primitives" : [
                {
                    "attributes" : {
                        "POSITION" : 0,
                        "NORMAL" : 1,
                        "TEXCOORD_0" : 2
                    },
                    "indices" : 3,
                    "material" : 0
                }
            ]
        },
        {
            "name" : "Cube.028",
            "primitives" : [
                {
                    "attributes" : {
                        "POSITION" : 4,
                        "NORMAL" : 5,
                        "TEXCOORD_0" : 6
                    },
                    "indices" : 7,
                    "material" : 0
                }
            ]
        },
        {
            "name" : "Cube.029",
            "primitives" : [
                {
                    "attributes" : {
                        "POSITION" : 8,
                        "NORMAL" : 9,
                        "TEXCOORD_0" : 10
                    },
                    "indices" : 11,
                    "material" : 1
                }
            ]
        },
        {
            "name" : "Cube.030",
            "primitives" : [
                {
                    "attributes" : {
                        "POSITION" : 12,
                        "NORMAL" : 13,
                        "TEXCOORD_0" : 14
                    },
                    "indices" : 15,
                    "material" : 1
                }
            ]
        },
        {
            "name" : "Cube.026",
            "primitives" : [
                {
                    "attributes" : {
                        "POSITION" : 16,
                        "NORMAL" : 17,
                        "TEXCOORD_0" : 18
                    },
                    "indices" : 19,
                    "material" : 2
                },
                {
                    "attributes" : {
                        "POSITION" : 20,
                        "NORMAL" : 21,
                        "TEXCOORD_0" : 22
                    },
                    "indices" : 23,
                    "material" : 3
                }
            ]
        },
        {
            "name" : "Cube.031",
            "primitives" : [
                {
                    "attributes" : {
                        "POSITION" : 24,
                        "NORMAL" : 25,
                        "TEXCOORD_0" : 26
                    },
                    "indices" : 27,
                    "material" : 1
                }
            ]
        },
        {
            "name" : "Cube.033",
            "primitives" : [
                {
                    "attributes" : {
                        "POSITION" : 28,
                        "NORMAL" : 29,
                        "TEXCOORD_0" : 30
                    },
                    "indices" : 31,
                    "material" : 1
                }
            ]
        },
        {
            "name" : "Cube.035",
            "primitives" : [
                {
                    "attributes" : {
                        "POSITION" : 32,
                        "NORMAL" : 33,
                        "TEXCOORD_0" : 34
                    },
                    "indices" : 35,
                    "material" : 1
                }
            ]
        },
        {
            "name" : "Cube.036",
            "primitives" : [
                {
                    "attributes" : {
                        "POSITION" : 36,
                        "NORMAL" : 37,
                        "TEXCOORD_0" : 38
                    },
                    "indices" : 39,
                    "material" : 1
                }
            ]
        },
        {
            "name" : "Cube.038",
            "primitives" : [
                {
                    "attributes" : {
                        "POSITION" : 40,
                        "NORMAL" : 41,
                        "TEXCOORD_0" : 42
                    },
                    "indices" : 43,
                    "material" : 1
                }
            ]
        }
    ],
    "textures" : [
        {
            "sampler" : 0,
            "source" : 0
        },
        {
            "sampler" : 0,
            "source" : 1
        },
        {
            "sampler" : 0,
            "source" : 2
        }
    ],
    "images" : [
        {
            "mimeType" : "image/png",
            "name" : "edap_planks_helicopter_dolly_Normal",
            "uri" : "edap_planks_helicopter_dolly_Normal.png"
        },
        {
            "mimeType" : "image/png",
            "name" : "edap_planks_helicopter_dolly_composite",
            "uri" : "edap_planks_helicopter_dolly_composite.png"
        },
        {
            "mimeType" : "image/png",
            "name" : "edap_planks_helicopter_dolly_Base_Color",
            "uri" : "edap_planks_helicopter_dolly_Base_Color.png"
        }
    ],
    "accessors" : [
        {
            "bufferView" : 0,
            "componentType" : 5126,
            "count" : 20,
            "max" : [
                1.4810512065887451,
                0.1622115820646286,
                1.0185186862945557
            ],
            "min" : [
                -1.4913607835769653,
                0.0700867623090744,
                1.0045413970947266
            ],
            "type" : "VEC3"
        },
        {
            "bufferView" : 1,
            "componentType" : 5126,
            "count" : 20,
            "type" : "VEC3"
        },
        {
            "bufferView" : 2,
            "componentType" : 5126,
            "count" : 20,
            "type" : "VEC2"
        },
        {
            "bufferView" : 3,
            "componentType" : 5123,
            "count" : 30,
            "type" : "SCALAR"
        },
        {
            "bufferView" : 4,
            "componentType" : 5126,
            "count" : 20,
            "max" : [
                1.4810512065887451,
                0.1622115820646286,
                -1.0015785694122314
            ],
            "min" : [
                -1.49192214012146,
                0.0700867623090744,
                -1.015556812286377
            ],
            "type" : "VEC3"
        },
        {
            "bufferView" : 5,
            "componentType" : 5126,
            "count" : 20,
            "type" : "VEC3"
        },
        {
            "bufferView" : 6,
            "componentType" : 5126,
            "count" : 20,
            "type" : "VEC2"
        },
        {
            "bufferView" : 7,
            "componentType" : 5123,
            "count" : 30,
            "type" : "SCALAR"
        },
        {
            "bufferView" : 8,
            "componentType" : 5126,
            "count" : 210,
            "max" : [
                1.6033133268356323,
                0.15113621950149536,
                1.0267201662063599
            ],
            "min" : [
                1.4796324968338013,
                0.053853895515203476,
                0.9390146732330322
            ],
            "type" : "VEC3"
        },
        {
            "bufferView" : 9,
            "componentType" : 5126,
            "count" : 210,
            "type" : "VEC3"
        },
        {
            "bufferView" : 10,
            "componentType" : 5126,
            "count" : 210,
            "type" : "VEC2"
        },
        {
            "bufferView" : 11,
            "componentType" : 5123,
            "count" : 348,
            "type" : "SCALAR"
        },
        {
            "bufferView" : 12,
            "componentType" : 5126,
            "count" : 210,
            "max" : [
                1.6033133268356323,
                0.15113621950149536,
                -0.9359411001205444
            ],
            "min" : [
                1.4796324968338013,
                0.053853899240493774,
                -1.023646593093872
            ],
            "type" : "VEC3"
        },
        {
            "bufferView" : 13,
            "componentType" : 5126,
            "count" : 210,
            "type" : "VEC3"
        },
        {
            "bufferView" : 14,
            "componentType" : 5126,
            "count" : 210,
            "type" : "VEC2"
        },
        {
            "bufferView" : 15,
            "componentType" : 5123,
            "count" : 348,
            "type" : "SCALAR"
        },
        {
            "bufferView" : 16,
            "componentType" : 5126,
            "count" : 87,
            "max" : [
                1.495033621788025,
                0.17358724772930145,
                1
            ],
            "min" : [
                -1.495033621788025,
                0.13300174474716187,
                -1
            ],
            "type" : "VEC3"
        },
        {
            "bufferView" : 17,
            "componentType" : 5126,
            "count" : 87,
            "type" : "VEC3"
        },
        {
            "bufferView" : 18,
            "componentType" : 5126,
            "count" : 87,
            "type" : "VEC2"
        },
        {
            "bufferView" : 19,
            "componentType" : 5123,
            "count" : 174,
            "type" : "SCALAR"
        },
        {
            "bufferView" : 20,
            "componentType" : 5126,
            "count" : 20,
            "max" : [
                -0.5173238515853882,
                0.17358724772930145,
                -0.5221354961395264
            ],
            "min" : [
                -1.495033621788025,
                0.13928134739398956,
                -1
            ],
            "type" : "VEC3"
        },
        {
            "bufferView" : 21,
            "componentType" : 5126,
            "count" : 20,
            "type" : "VEC3"
        },
        {
            "bufferView" : 22,
            "componentType" : 5126,
            "count" : 20,
            "type" : "VEC2"
        },
        {
            "bufferView" : 23,
            "componentType" : 5123,
            "count" : 42,
            "type" : "SCALAR"
        },
        {
            "bufferView" : 24,
            "componentType" : 5126,
            "count" : 253,
            "max" : [
                -1.4594380855560303,
                0.1814003735780716,
                -0.9090617895126343
            ],
            "min" : [
                -1.609438180923462,
                0.13052918016910553,
                -1.001033067703247
            ],
            "type" : "VEC3"
        },
        {
            "bufferView" : 25,
            "componentType" : 5126,
            "count" : 253,
            "type" : "VEC3"
        },
        {
            "bufferView" : 26,
            "componentType" : 5126,
            "count" : 253,
            "type" : "VEC2"
        },
        {
            "bufferView" : 27,
            "componentType" : 5123,
            "count" : 468,
            "type" : "SCALAR"
        },
        {
            "bufferView" : 28,
            "componentType" : 5126,
            "count" : 253,
            "max" : [
                -1.4594380855560303,
                0.1814003735780716,
                1.001033067703247
            ],
            "min" : [
                -1.609438180923462,
                0.13052918016910553,
                0.9090617895126343
            ],
            "type" : "VEC3"
        },
        {
            "bufferView" : 29,
            "componentType" : 5126,
            "count" : 253,
            "type" : "VEC3"
        },
        {
            "bufferView" : 30,
            "componentType" : 5126,
            "count" : 253,
            "type" : "VEC2"
        },
        {
            "bufferView" : 31,
            "componentType" : 5123,
            "count" : 468,
            "type" : "SCALAR"
        },
        {
            "bufferView" : 32,
            "componentType" : 5126,
            "count" : 16,
            "max" : [
                1.5113418102264404,
                0.14852292835712433,
                0.935131311416626
            ],
            "min" : [
                1.496574878692627,
                0.07934293150901794,
                -0.935131311416626
            ],
            "type" : "VEC3"
        },
        {
            "bufferView" : 33,
            "componentType" : 5126,
            "count" : 16,
            "type" : "VEC3"
        },
        {
            "bufferView" : 34,
            "componentType" : 5126,
            "count" : 16,
            "type" : "VEC2"
        },
        {
            "bufferView" : 35,
            "componentType" : 5123,
            "count" : 24,
            "type" : "SCALAR"
        },
        {
            "bufferView" : 36,
            "componentType" : 5126,
            "count" : 196,
            "max" : [
                -1.4862173795700073,
                0.14678466320037842,
                1.028104543685913
            ],
            "min" : [
                -1.5351284742355347,
                0.0676414966583252,
                -1.0247973203659058
            ],
            "type" : "VEC3"
        },
        {
            "bufferView" : 37,
            "componentType" : 5126,
            "count" : 196,
            "type" : "VEC3"
        },
        {
            "bufferView" : 38,
            "componentType" : 5126,
            "count" : 196,
            "type" : "VEC2"
        },
        {
            "bufferView" : 39,
            "componentType" : 5123,
            "count" : 372,
            "type" : "SCALAR"
        },
        {
            "bufferView" : 40,
            "componentType" : 5126,
            "count" : 148,
            "max" : [
                -1.532646656036377,
                0.11278506368398666,
                0.2851962745189667
            ],
            "min" : [
                -2.3883070945739746,
                0.03712637722492218,
                -0.28596755862236023
            ],
            "type" : "VEC3"
        },
        {
            "bufferView" : 41,
            "componentType" : 5126,
            "count" : 148,
            "type" : "VEC3"
        },
        {
            "bufferView" : 42,
            "componentType" : 5126,
            "count" : 148,
            "type" : "VEC2"
        },
        {
            "bufferView" : 43,
            "componentType" : 5123,
            "count" : 234,
            "type" : "SCALAR"
        }
    ],
    "bufferViews" : [
        {
            "buffer" : 0,
            "byteLength" : 240,
            "byteOffset" : 0
        },
        {
            "buffer" : 0,
            "byteLength" : 240,
            "byteOffset" : 240
        },
        {
            "buffer" : 0,
            "byteLength" : 160,
            "byteOffset" : 480
        },
        {
            "buffer" : 0,
            "byteLength" : 60,
            "byteOffset" : 640
        },
        {
            "buffer" : 0,
            "byteLength" : 240,
            "byteOffset" : 700
        },
        {
            "buffer" : 0,
            "byteLength" : 240,
            "byteOffset" : 940
        },
        {
            "buffer" : 0,
            "byteLength" : 160,
            "byteOffset" : 1180
        },
        {
            "buffer" : 0,
            "byteLength" : 60,
            "byteOffset" : 1340
        },
        {
            "buffer" : 0,
            "byteLength" : 2520,
            "byteOffset" : 1400
        },
        {
            "buffer" : 0,
            "byteLength" : 2520,
            "byteOffset" : 3920
        },
        {
            "buffer" : 0,
            "byteLength" : 1680,
            "byteOffset" : 6440
        },
        {
            "buffer" : 0,
            "byteLength" : 696,
            "byteOffset" : 8120
        },
        {
            "buffer" : 0,
            "byteLength" : 2520,
            "byteOffset" : 8816
        },
        {
            "buffer" : 0,
            "byteLength" : 2520,
            "byteOffset" : 11336
        },
        {
            "buffer" : 0,
            "byteLength" : 1680,
            "byteOffset" : 13856
        },
        {
            "buffer" : 0,
            "byteLength" : 696,
            "byteOffset" : 15536
        },
        {
            "buffer" : 0,
            "byteLength" : 1044,
            "byteOffset" : 16232
        },
        {
            "buffer" : 0,
            "byteLength" : 1044,
            "byteOffset" : 17276
        },
        {
            "buffer" : 0,
            "byteLength" : 696,
            "byteOffset" : 18320
        },
        {
            "buffer" : 0,
            "byteLength" : 348,
            "byteOffset" : 19016
        },
        {
            "buffer" : 0,
            "byteLength" : 240,
            "byteOffset" : 19364
        },
        {
            "buffer" : 0,
            "byteLength" : 240,
            "byteOffset" : 19604
        },
        {
            "buffer" : 0,
            "byteLength" : 160,
            "byteOffset" : 19844
        },
        {
            "buffer" : 0,
            "byteLength" : 84,
            "byteOffset" : 20004
        },
        {
            "buffer" : 0,
            "byteLength" : 3036,
            "byteOffset" : 20088
        },
        {
            "buffer" : 0,
            "byteLength" : 3036,
            "byteOffset" : 23124
        },
        {
            "buffer" : 0,
            "byteLength" : 2024,
            "byteOffset" : 26160
        },
        {
            "buffer" : 0,
            "byteLength" : 936,
            "byteOffset" : 28184
        },
        {
            "buffer" : 0,
            "byteLength" : 3036,
            "byteOffset" : 29120
        },
        {
            "buffer" : 0,
            "byteLength" : 3036,
            "byteOffset" : 32156
        },
        {
            "buffer" : 0,
            "byteLength" : 2024,
            "byteOffset" : 35192
        },
        {
            "buffer" : 0,
            "byteLength" : 936,
            "byteOffset" : 37216
        },
        {
            "buffer" : 0,
            "byteLength" : 192,
            "byteOffset" : 38152
        },
        {
            "buffer" : 0,
            "byteLength" : 192,
            "byteOffset" : 38344
        },
        {
            "buffer" : 0,
            "byteLength" : 128,
            "byteOffset" : 38536
        },
        {
            "buffer" : 0,
            "byteLength" : 48,
            "byteOffset" : 38664
        },
        {
            "buffer" : 0,
            "byteLength" : 2352,
            "byteOffset" : 38712
        },
        {
            "buffer" : 0,
            "byteLength" : 2352,
            "byteOffset" : 41064
        },
        {
            "buffer" : 0,
            "byteLength" : 1568,
            "byteOffset" : 43416
        },
        {
            "buffer" : 0,
            "byteLength" : 744,
            "byteOffset" : 44984
        },
        {
            "buffer" : 0,
            "byteLength" : 1776,
            "byteOffset" : 45728
        },
        {
            "buffer" : 0,
            "byteLength" : 1776,
            "byteOffset" : 47504
        },
        {
            "buffer" : 0,
            "byteLength" : 1184,
            "byteOffset" : 49280
        },
        {
            "buffer" : 0,
            "byteLength" : 468,
            "byteOffset" : 50464
        }
    ],
    "samplers" : [
        {
            "magFilter" : 9729,
            "minFilter" : 9987
        }
    ],
    "buffers" : [
        {
            "byteLength" : 50932,
            "uri" : "edap-helicopter-dolly_LOD02.bin"
        }
    ]
}
