{
    "asset" : {
        "extensions" : {
            "ASOBO_normal_map_convention" : {
                "tangent_space_convention" : "DirectX"
            }
        },
        "generator" : "Khronos glTF Blender I/O v1.8.19 and Asobo Studio MSFS Blender I/O v1.1.6",
        "version" : "2.0"
    },
    "extensionsUsed" : [
        "ASOBO_normal_map_convention",
        "ASOBO_material_blend_gbuffer",
        "ASOBO_material_shadow_options"
    ],
    "scene" : 0,
    "scenes" : [
        {
            "name" : "Scene",
            "nodes" : [
                0,
                1,
                2,
                3,
                4,
                5,
                6,
                7,
                8
            ]
        }
    ],
    "nodes" : [
        {
            "mesh" : 0,
            "name" : "container"
        },
        {
            "mesh" : 1,
            "name" : "short rims"
        },
        {
            "mesh" : 2,
            "name" : "corners"
        },
        {
            "mesh" : 3,
            "name" : "long rims.001"
        },
        {
            "mesh" : 4,
            "name" : "long side rust.001"
        },
        {
            "mesh" : 5,
            "name" : "long side rust.002"
        },
        {
            "mesh" : 6,
            "name" : "container door"
        },
        {
            "mesh" : 7,
            "name" : "short side rust"
        },
        {
            "mesh" : 8,
            "name" : "container roof grime"
        }
    ],
    "materials" : [
        {
            "name" : "EDAP paint white",
            "pbrMetallicRoughness" : {
                "baseColorFactor" : [
                    0.5204225778579712,
                    0.5204225778579712,
                    0.5204225778579712,
                    1
                ],
                "metallicFactor" : 0,
                "roughnessFactor" : 0.5
            }
        },
        {
            "name" : "EDAP paint blue",
            "pbrMetallicRoughness" : {
                "baseColorFactor" : [
                    0.045185983180999756,
                    0.127437561750412,
                    0.23455052077770233,
                    1
                ],
                "metallicFactor" : 0.5,
                "roughnessFactor" : 0.5
            }
        },
        {
            "alphaMode" : "BLEND",
            "extensions" : {
                "ASOBO_material_blend_gbuffer" : {
                    "enabled" : true,
                    "baseColorBlendFactor" : 1,
                    "metallicBlendFactor" : 1,
                    "roughnessBlendFactor" : 1,
                    "normalBlendFactor" : 1,
                    "emissiveBlendFactor" : 1,
                    "occlusionBlendFactor" : 1
                },
                "ASOBO_material_shadow_options" : {
                    "noCastShadow" : true
                }
            },
            "name" : "EDAP decal rust 2",
            "pbrMetallicRoughness" : {
                "baseColorTexture" : {
                    "index" : 0
                }
            }
        },
        {
            "alphaMode" : "BLEND",
            "extensions" : {
                "ASOBO_material_blend_gbuffer" : {
                    "enabled" : true,
                    "baseColorBlendFactor" : 1,
                    "metallicBlendFactor" : 1,
                    "roughnessBlendFactor" : 1,
                    "normalBlendFactor" : 1,
                    "emissiveBlendFactor" : 1,
                    "occlusionBlendFactor" : 1
                }
            },
            "name" : "EDAP container door white",
            "pbrMetallicRoughness" : {
                "baseColorTexture" : {
                    "index" : 1
                },
                "metallicFactor" : 0
            }
        },
        {
            "alphaMode" : "BLEND",
            "extensions" : {
                "ASOBO_material_blend_gbuffer" : {
                    "enabled" : true,
                    "baseColorBlendFactor" : 1,
                    "metallicBlendFactor" : 1,
                    "roughnessBlendFactor" : 1,
                    "normalBlendFactor" : 1,
                    "emissiveBlendFactor" : 1,
                    "occlusionBlendFactor" : 1
                },
                "ASOBO_material_shadow_options" : {
                    "noCastShadow" : true
                }
            },
            "name" : "EDAP dirt overlay",
            "pbrMetallicRoughness" : {
                "baseColorTexture" : {
                    "index" : 2
                }
            }
        }
    ],
    "meshes" : [
        {
            "name" : "Cube",
            "primitives" : [
                {
                    "attributes" : {
                        "POSITION" : 0,
                        "NORMAL" : 1,
                        "TEXCOORD_0" : 2
                    },
                    "indices" : 3,
                    "material" : 0
                }
            ]
        },
        {
            "name" : "Cube.001",
            "primitives" : [
                {
                    "attributes" : {
                        "POSITION" : 4,
                        "NORMAL" : 5,
                        "TEXCOORD_0" : 6
                    },
                    "indices" : 7,
                    "material" : 1
                }
            ]
        },
        {
            "name" : "Cube.002",
            "primitives" : [
                {
                    "attributes" : {
                        "POSITION" : 8,
                        "NORMAL" : 9,
                        "TEXCOORD_0" : 10
                    },
                    "indices" : 7,
                    "material" : 1
                }
            ]
        },
        {
            "name" : "Cube.003",
            "primitives" : [
                {
                    "attributes" : {
                        "POSITION" : 11,
                        "NORMAL" : 12,
                        "TEXCOORD_0" : 13
                    },
                    "indices" : 7,
                    "material" : 1
                }
            ]
        },
        {
            "name" : "Cube.011",
            "primitives" : [
                {
                    "attributes" : {
                        "POSITION" : 14,
                        "NORMAL" : 15,
                        "TEXCOORD_0" : 16
                    },
                    "indices" : 17,
                    "material" : 2
                }
            ]
        },
        {
            "name" : "Cube.012",
            "primitives" : [
                {
                    "attributes" : {
                        "POSITION" : 18,
                        "NORMAL" : 19,
                        "TEXCOORD_0" : 20
                    },
                    "indices" : 21,
                    "material" : 2
                }
            ]
        },
        {
            "name" : "Cube.013",
            "primitives" : [
                {
                    "attributes" : {
                        "POSITION" : 22,
                        "NORMAL" : 23,
                        "TEXCOORD_0" : 24
                    },
                    "indices" : 25,
                    "material" : 3
                }
            ]
        },
        {
            "name" : "Cube.014",
            "primitives" : [
                {
                    "attributes" : {
                        "POSITION" : 26,
                        "NORMAL" : 27,
                        "TEXCOORD_0" : 28
                    },
                    "indices" : 29,
                    "material" : 2
                }
            ]
        },
        {
            "name" : "Cube.015",
            "primitives" : [
                {
                    "attributes" : {
                        "POSITION" : 30,
                        "NORMAL" : 31,
                        "TEXCOORD_0" : 32
                    },
                    "indices" : 33,
                    "material" : 4
                }
            ]
        }
    ],
    "textures" : [
        {
            "sampler" : 0,
            "source" : 0
        },
        {
            "sampler" : 0,
            "source" : 1
        },
        {
            "sampler" : 0,
            "source" : 2
        }
    ],
    "images" : [
        {
            "mimeType" : "image/png",
            "name" : "DecalsRusted0062_3_masked_S",
            "uri" : "DecalsRusted0062_3_masked_S.png"
        },
        {
            "mimeType" : "image/png",
            "name" : "MetalContainers0149",
            "uri" : "MetalContainers0149.png"
        },
        {
            "mimeType" : "image/png",
            "name" : "DecalsDamagePlaster0074_1_masked_S",
            "uri" : "DecalsDamagePlaster0074_1_masked_S.png"
        }
    ],
    "accessors" : [
        {
            "bufferView" : 0,
            "componentType" : 5126,
            "count" : 2652,
            "max" : [
                3.049999952316284,
                2.6245784759521484,
                1.2200000286102295
            ],
            "min" : [
                -3.049999952316284,
                0,
                -1.2200000286102295
            ],
            "type" : "VEC3"
        },
        {
            "bufferView" : 1,
            "componentType" : 5126,
            "count" : 2652,
            "type" : "VEC3"
        },
        {
            "bufferView" : 2,
            "componentType" : 5126,
            "count" : 2652,
            "type" : "VEC2"
        },
        {
            "bufferView" : 3,
            "componentType" : 5123,
            "count" : 4362,
            "type" : "SCALAR"
        },
        {
            "bufferView" : 4,
            "componentType" : 5126,
            "count" : 96,
            "max" : [
                3.06715726852417,
                2.5962347984313965,
                1.1961249113082886
            ],
            "min" : [
                -3.06715726852417,
                2.542961359024048,
                -1.1961249113082886
            ],
            "type" : "VEC3"
        },
        {
            "bufferView" : 5,
            "componentType" : 5126,
            "count" : 96,
            "type" : "VEC3"
        },
        {
            "bufferView" : 6,
            "componentType" : 5126,
            "count" : 96,
            "type" : "VEC2"
        },
        {
            "bufferView" : 7,
            "componentType" : 5123,
            "count" : 144,
            "type" : "SCALAR"
        },
        {
            "bufferView" : 8,
            "componentType" : 5126,
            "count" : 96,
            "max" : [
                3.090632677078247,
                2.664238452911377,
                1.3082557916641235
            ],
            "min" : [
                -3.090632677078247,
                -0.06409343332052231,
                -1.3082557916641235
            ],
            "type" : "VEC3"
        },
        {
            "bufferView" : 9,
            "componentType" : 5126,
            "count" : 96,
            "type" : "VEC3"
        },
        {
            "bufferView" : 10,
            "componentType" : 5126,
            "count" : 96,
            "type" : "VEC2"
        },
        {
            "bufferView" : 11,
            "componentType" : 5126,
            "count" : 96,
            "max" : [
                3.018745183944702,
                2.5992074012756348,
                1.255334734916687
            ],
            "min" : [
                -3.018745183944702,
                2.5571799278259277,
                -1.255334734916687
            ],
            "type" : "VEC3"
        },
        {
            "bufferView" : 12,
            "componentType" : 5126,
            "count" : 96,
            "type" : "VEC3"
        },
        {
            "bufferView" : 13,
            "componentType" : 5126,
            "count" : 96,
            "type" : "VEC2"
        },
        {
            "bufferView" : 14,
            "componentType" : 5126,
            "count" : 96,
            "max" : [
                3.049999952316284,
                2.5899999141693115,
                -1.2203937768936157
            ],
            "min" : [
                -3.049999952316284,
                0,
                -1.2203937768936157
            ],
            "type" : "VEC3"
        },
        {
            "bufferView" : 15,
            "componentType" : 5126,
            "count" : 96,
            "type" : "VEC3"
        },
        {
            "bufferView" : 16,
            "componentType" : 5126,
            "count" : 96,
            "type" : "VEC2"
        },
        {
            "bufferView" : 17,
            "componentType" : 5123,
            "count" : 144,
            "type" : "SCALAR"
        },
        {
            "bufferView" : 18,
            "componentType" : 5126,
            "count" : 100,
            "max" : [
                3.049999475479126,
                2.5899999141693115,
                1.2203947305679321
            ],
            "min" : [
                -3.0500004291534424,
                0,
                1.2203928232192993
            ],
            "type" : "VEC3"
        },
        {
            "bufferView" : 19,
            "componentType" : 5126,
            "count" : 100,
            "type" : "VEC3"
        },
        {
            "bufferView" : 20,
            "componentType" : 5126,
            "count" : 100,
            "type" : "VEC2"
        },
        {
            "bufferView" : 21,
            "componentType" : 5123,
            "count" : 150,
            "type" : "SCALAR"
        },
        {
            "bufferView" : 22,
            "componentType" : 5126,
            "count" : 4,
            "max" : [
                -3.0848326683044434,
                2.5899999141693115,
                1.218207836151123
            ],
            "min" : [
                -3.0848326683044434,
                0,
                -1.2200000286102295
            ],
            "type" : "VEC3"
        },
        {
            "bufferView" : 23,
            "componentType" : 5126,
            "count" : 4,
            "type" : "VEC3"
        },
        {
            "bufferView" : 24,
            "componentType" : 5126,
            "count" : 4,
            "type" : "VEC2"
        },
        {
            "bufferView" : 25,
            "componentType" : 5123,
            "count" : 6,
            "type" : "SCALAR"
        },
        {
            "bufferView" : 26,
            "componentType" : 5126,
            "count" : 32,
            "max" : [
                3.049999952316284,
                2.5899999141693115,
                0.9631580114364624
            ],
            "min" : [
                3.049999952316284,
                0,
                -0.9631580114364624
            ],
            "type" : "VEC3"
        },
        {
            "bufferView" : 27,
            "componentType" : 5126,
            "count" : 32,
            "type" : "VEC3"
        },
        {
            "bufferView" : 28,
            "componentType" : 5126,
            "count" : 32,
            "type" : "VEC2"
        },
        {
            "bufferView" : 29,
            "componentType" : 5123,
            "count" : 48,
            "type" : "SCALAR"
        },
        {
            "bufferView" : 30,
            "componentType" : 5126,
            "count" : 180,
            "max" : [
                2.91312575340271,
                2.6264195442199707,
                1.2200000286102295
            ],
            "min" : [
                -2.927299737930298,
                2.591840982437134,
                -1.2200000286102295
            ],
            "type" : "VEC3"
        },
        {
            "bufferView" : 31,
            "componentType" : 5126,
            "count" : 180,
            "type" : "VEC3"
        },
        {
            "bufferView" : 32,
            "componentType" : 5126,
            "count" : 180,
            "type" : "VEC2"
        },
        {
            "bufferView" : 33,
            "componentType" : 5123,
            "count" : 270,
            "type" : "SCALAR"
        }
    ],
    "bufferViews" : [
        {
            "buffer" : 0,
            "byteLength" : 31824,
            "byteOffset" : 0
        },
        {
            "buffer" : 0,
            "byteLength" : 31824,
            "byteOffset" : 31824
        },
        {
            "buffer" : 0,
            "byteLength" : 21216,
            "byteOffset" : 63648
        },
        {
            "buffer" : 0,
            "byteLength" : 8724,
            "byteOffset" : 84864
        },
        {
            "buffer" : 0,
            "byteLength" : 1152,
            "byteOffset" : 93588
        },
        {
            "buffer" : 0,
            "byteLength" : 1152,
            "byteOffset" : 94740
        },
        {
            "buffer" : 0,
            "byteLength" : 768,
            "byteOffset" : 95892
        },
        {
            "buffer" : 0,
            "byteLength" : 288,
            "byteOffset" : 96660
        },
        {
            "buffer" : 0,
            "byteLength" : 1152,
            "byteOffset" : 96948
        },
        {
            "buffer" : 0,
            "byteLength" : 1152,
            "byteOffset" : 98100
        },
        {
            "buffer" : 0,
            "byteLength" : 768,
            "byteOffset" : 99252
        },
        {
            "buffer" : 0,
            "byteLength" : 1152,
            "byteOffset" : 100020
        },
        {
            "buffer" : 0,
            "byteLength" : 1152,
            "byteOffset" : 101172
        },
        {
            "buffer" : 0,
            "byteLength" : 768,
            "byteOffset" : 102324
        },
        {
            "buffer" : 0,
            "byteLength" : 1152,
            "byteOffset" : 103092
        },
        {
            "buffer" : 0,
            "byteLength" : 1152,
            "byteOffset" : 104244
        },
        {
            "buffer" : 0,
            "byteLength" : 768,
            "byteOffset" : 105396
        },
        {
            "buffer" : 0,
            "byteLength" : 288,
            "byteOffset" : 106164
        },
        {
            "buffer" : 0,
            "byteLength" : 1200,
            "byteOffset" : 106452
        },
        {
            "buffer" : 0,
            "byteLength" : 1200,
            "byteOffset" : 107652
        },
        {
            "buffer" : 0,
            "byteLength" : 800,
            "byteOffset" : 108852
        },
        {
            "buffer" : 0,
            "byteLength" : 300,
            "byteOffset" : 109652
        },
        {
            "buffer" : 0,
            "byteLength" : 48,
            "byteOffset" : 109952
        },
        {
            "buffer" : 0,
            "byteLength" : 48,
            "byteOffset" : 110000
        },
        {
            "buffer" : 0,
            "byteLength" : 32,
            "byteOffset" : 110048
        },
        {
            "buffer" : 0,
            "byteLength" : 12,
            "byteOffset" : 110080
        },
        {
            "buffer" : 0,
            "byteLength" : 384,
            "byteOffset" : 110092
        },
        {
            "buffer" : 0,
            "byteLength" : 384,
            "byteOffset" : 110476
        },
        {
            "buffer" : 0,
            "byteLength" : 256,
            "byteOffset" : 110860
        },
        {
            "buffer" : 0,
            "byteLength" : 96,
            "byteOffset" : 111116
        },
        {
            "buffer" : 0,
            "byteLength" : 2160,
            "byteOffset" : 111212
        },
        {
            "buffer" : 0,
            "byteLength" : 2160,
            "byteOffset" : 113372
        },
        {
            "buffer" : 0,
            "byteLength" : 1440,
            "byteOffset" : 115532
        },
        {
            "buffer" : 0,
            "byteLength" : 540,
            "byteOffset" : 116972
        }
    ],
    "samplers" : [
        {
            "magFilter" : 9729,
            "minFilter" : 9987
        }
    ],
    "buffers" : [
        {
            "byteLength" : 117512,
            "uri" : "edap-container-20ft_LOD00.bin"
        }
    ]
}
