{
    "asset" : {
        "extensions" : {
            "ASOBO_normal_map_convention" : {
                "tangent_space_convention" : "DirectX"
            }
        },
        "generator" : "Khronos glTF Blender I/O v1.8.19 and Asobo Studio MSFS Blender I/O v1.1.6",
        "version" : "2.0"
    },
    "extensionsUsed" : [
        "ASOBO_normal_map_convention",
        "ASOBO_material_blend_gbuffer"
    ],
    "scene" : 0,
    "scenes" : [
        {
            "name" : "Scene",
            "nodes" : [
                0,
                1,
                2,
                3,
                4
            ]
        }
    ],
    "nodes" : [
        {
            "mesh" : 0,
            "name" : "container.001"
        },
        {
            "mesh" : 1,
            "name" : "short rims.001"
        },
        {
            "mesh" : 2,
            "name" : "corners.001"
        },
        {
            "mesh" : 3,
            "name" : "long rims.002"
        },
        {
            "mesh" : 4,
            "name" : "container door.001"
        }
    ],
    "materials" : [
        {
            "name" : "EDAP COL paint white",
            "pbrMetallicRoughness" : {
                "baseColorFactor" : [
                    0.5204225778579712,
                    0.5204225778579712,
                    0.5204225778579712,
                    1
                ],
                "metallicFactor" : 0,
                "roughnessFactor" : 0.5
            }
        },
        {
            "name" : "EDAP COL paint blue",
            "pbrMetallicRoughness" : {
                "baseColorFactor" : [
                    0.045185983180999756,
                    0.127437561750412,
                    0.23455052077770233,
                    1
                ],
                "metallicFactor" : 0.5,
                "roughnessFactor" : 0.5
            }
        },
        {
            "alphaMode" : "BLEND",
            "extensions" : {
                "ASOBO_material_blend_gbuffer" : {
                    "enabled" : true,
                    "baseColorBlendFactor" : 1,
                    "metallicBlendFactor" : 1,
                    "roughnessBlendFactor" : 1,
                    "normalBlendFactor" : 1,
                    "emissiveBlendFactor" : 1,
                    "occlusionBlendFactor" : 1
                }
            },
            "name" : "EDAP DCL container door white",
            "pbrMetallicRoughness" : {
                "baseColorTexture" : {
                    "index" : 0
                },
                "metallicFactor" : 0
            }
        }
    ],
    "meshes" : [
        {
            "name" : "Cube.004",
            "primitives" : [
                {
                    "attributes" : {
                        "POSITION" : 0,
                        "NORMAL" : 1,
                        "TEXCOORD_0" : 2
                    },
                    "indices" : 3,
                    "material" : 0
                }
            ]
        },
        {
            "name" : "Cube.005",
            "primitives" : [
                {
                    "attributes" : {
                        "POSITION" : 4,
                        "NORMAL" : 5,
                        "TEXCOORD_0" : 6
                    },
                    "indices" : 7,
                    "material" : 1
                }
            ]
        },
        {
            "name" : "Cube.006",
            "primitives" : [
                {
                    "attributes" : {
                        "POSITION" : 8,
                        "NORMAL" : 9,
                        "TEXCOORD_0" : 10
                    },
                    "indices" : 7,
                    "material" : 1
                }
            ]
        },
        {
            "name" : "Cube.007",
            "primitives" : [
                {
                    "attributes" : {
                        "POSITION" : 11,
                        "NORMAL" : 12,
                        "TEXCOORD_0" : 13
                    },
                    "indices" : 7,
                    "material" : 1
                }
            ]
        },
        {
            "name" : "Cube.010",
            "primitives" : [
                {
                    "attributes" : {
                        "POSITION" : 14,
                        "NORMAL" : 15,
                        "TEXCOORD_0" : 16
                    },
                    "indices" : 17,
                    "material" : 2
                }
            ]
        }
    ],
    "textures" : [
        {
            "sampler" : 0,
            "source" : 0
        }
    ],
    "images" : [
        {
            "mimeType" : "image/png",
            "name" : "MetalContainers0149",
            "uri" : "MetalContainers0149.png"
        }
    ],
    "accessors" : [
        {
            "bufferView" : 0,
            "componentType" : 5126,
            "count" : 2520,
            "max" : [
                3.049999952316284,
                2.6245784759521484,
                1.2200000286102295
            ],
            "min" : [
                -3.049999952316284,
                0,
                -1.2200000286102295
            ],
            "type" : "VEC3"
        },
        {
            "bufferView" : 1,
            "componentType" : 5126,
            "count" : 2520,
            "type" : "VEC3"
        },
        {
            "bufferView" : 2,
            "componentType" : 5126,
            "count" : 2520,
            "type" : "VEC2"
        },
        {
            "bufferView" : 3,
            "componentType" : 5123,
            "count" : 3972,
            "type" : "SCALAR"
        },
        {
            "bufferView" : 4,
            "componentType" : 5126,
            "count" : 96,
            "max" : [
                3.06715726852417,
                2.5962347984313965,
                1.1961249113082886
            ],
            "min" : [
                -3.06715726852417,
                2.542961359024048,
                -1.1961249113082886
            ],
            "type" : "VEC3"
        },
        {
            "bufferView" : 5,
            "componentType" : 5126,
            "count" : 96,
            "type" : "VEC3"
        },
        {
            "bufferView" : 6,
            "componentType" : 5126,
            "count" : 96,
            "type" : "VEC2"
        },
        {
            "bufferView" : 7,
            "componentType" : 5123,
            "count" : 144,
            "type" : "SCALAR"
        },
        {
            "bufferView" : 8,
            "componentType" : 5126,
            "count" : 96,
            "max" : [
                3.090632677078247,
                2.664238452911377,
                1.3082557916641235
            ],
            "min" : [
                -3.090632677078247,
                -0.06409343332052231,
                -1.3082557916641235
            ],
            "type" : "VEC3"
        },
        {
            "bufferView" : 9,
            "componentType" : 5126,
            "count" : 96,
            "type" : "VEC3"
        },
        {
            "bufferView" : 10,
            "componentType" : 5126,
            "count" : 96,
            "type" : "VEC2"
        },
        {
            "bufferView" : 11,
            "componentType" : 5126,
            "count" : 96,
            "max" : [
                3.018745183944702,
                2.5992074012756348,
                1.255334734916687
            ],
            "min" : [
                -3.018745183944702,
                2.5571799278259277,
                -1.255334734916687
            ],
            "type" : "VEC3"
        },
        {
            "bufferView" : 12,
            "componentType" : 5126,
            "count" : 96,
            "type" : "VEC3"
        },
        {
            "bufferView" : 13,
            "componentType" : 5126,
            "count" : 96,
            "type" : "VEC2"
        },
        {
            "bufferView" : 14,
            "componentType" : 5126,
            "count" : 4,
            "max" : [
                -3.0848326683044434,
                2.5899999141693115,
                1.218207836151123
            ],
            "min" : [
                -3.0848326683044434,
                0,
                -1.2200000286102295
            ],
            "type" : "VEC3"
        },
        {
            "bufferView" : 15,
            "componentType" : 5126,
            "count" : 4,
            "type" : "VEC3"
        },
        {
            "bufferView" : 16,
            "componentType" : 5126,
            "count" : 4,
            "type" : "VEC2"
        },
        {
            "bufferView" : 17,
            "componentType" : 5123,
            "count" : 6,
            "type" : "SCALAR"
        }
    ],
    "bufferViews" : [
        {
            "buffer" : 0,
            "byteLength" : 30240,
            "byteOffset" : 0
        },
        {
            "buffer" : 0,
            "byteLength" : 30240,
            "byteOffset" : 30240
        },
        {
            "buffer" : 0,
            "byteLength" : 20160,
            "byteOffset" : 60480
        },
        {
            "buffer" : 0,
            "byteLength" : 7944,
            "byteOffset" : 80640
        },
        {
            "buffer" : 0,
            "byteLength" : 1152,
            "byteOffset" : 88584
        },
        {
            "buffer" : 0,
            "byteLength" : 1152,
            "byteOffset" : 89736
        },
        {
            "buffer" : 0,
            "byteLength" : 768,
            "byteOffset" : 90888
        },
        {
            "buffer" : 0,
            "byteLength" : 288,
            "byteOffset" : 91656
        },
        {
            "buffer" : 0,
            "byteLength" : 1152,
            "byteOffset" : 91944
        },
        {
            "buffer" : 0,
            "byteLength" : 1152,
            "byteOffset" : 93096
        },
        {
            "buffer" : 0,
            "byteLength" : 768,
            "byteOffset" : 94248
        },
        {
            "buffer" : 0,
            "byteLength" : 1152,
            "byteOffset" : 95016
        },
        {
            "buffer" : 0,
            "byteLength" : 1152,
            "byteOffset" : 96168
        },
        {
            "buffer" : 0,
            "byteLength" : 768,
            "byteOffset" : 97320
        },
        {
            "buffer" : 0,
            "byteLength" : 48,
            "byteOffset" : 98088
        },
        {
            "buffer" : 0,
            "byteLength" : 48,
            "byteOffset" : 98136
        },
        {
            "buffer" : 0,
            "byteLength" : 32,
            "byteOffset" : 98184
        },
        {
            "buffer" : 0,
            "byteLength" : 12,
            "byteOffset" : 98216
        }
    ],
    "samplers" : [
        {
            "magFilter" : 9729,
            "minFilter" : 9987
        }
    ],
    "buffers" : [
        {
            "byteLength" : 98228,
            "uri" : "edap-container-20ft_LOD01.bin"
        }
    ]
}
